<svg width="48" height="48" viewBox="0 0 48 48" fill="none" xmlns="http://www.w3.org/2000/svg">
<path fill-rule="evenodd" clip-rule="evenodd" d="M17.9919 23.3307L18.485 24.2553C18.9456 25.119 19.6347 26.5174 20.2103 27.9167C20.4981 28.6164 20.7608 29.3239 20.9523 29.9696C21.1408 30.6053 21.2727 31.2206 21.2727 31.7215C21.2727 34.1186 19.6087 35.4211 18.0037 35.4211C16.4351 35.4211 14.5843 34.1456 14.7358 31.6879C14.794 30.7447 15.2955 29.2883 15.8513 27.9191C16.4179 26.5229 17.0796 25.127 17.5174 24.265L17.9919 23.3307ZM18.0145 25.7273C17.6519 26.4879 17.2353 27.4098 16.8621 28.3294C16.2982 29.7188 15.8703 31.0161 15.8247 31.7551C15.7169 33.5029 16.9785 34.3302 18.0037 34.3302C18.9926 34.3302 20.1817 33.5299 20.1817 31.7215C20.1817 31.3813 20.0866 30.8876 19.9064 30.2798C19.7291 29.682 19.4811 29.0114 19.2015 28.3318C18.8228 27.4112 18.392 26.4879 18.0145 25.7273Z" fill="#1E88E5"/>
<path fill-rule="evenodd" clip-rule="evenodd" d="M14.6017 3.2735C16.5895 3.31326 18.5454 4.8379 18.5454 7.60294V13.6574C19.7903 13.9101 20.7273 15.0107 20.7273 16.3302C20.7273 17.6049 19.8527 18.6754 18.6709 18.9743C18.7729 19.0539 18.8634 19.1548 18.9362 19.2768C19.9436 20.9661 21.2684 23.3582 22.3434 25.6882C22.8808 26.853 23.3596 28.0106 23.7051 29.0623C24.0473 30.104 24.2726 31.0827 24.2726 31.8757C24.2726 36.0612 20.9577 38.1484 17.9999 38.1484C16.5205 38.1484 14.8918 37.6336 13.6584 36.587C12.4084 35.5264 11.5791 33.9289 11.7286 31.8368C11.7841 31.0601 12.0379 30.0945 12.3971 29.0569C12.7591 28.0111 13.2402 26.8583 13.7716 25.6963C14.8345 23.3721 16.1111 20.9843 17.0742 19.2954C17.1473 19.1672 17.24 19.0615 17.3454 18.9784C16.1553 18.6852 15.2727 17.6108 15.2727 16.3302C15.2727 15.0108 16.2096 13.9102 17.4545 13.6575V7.60294C17.4545 5.45888 16.0012 4.39262 14.5799 4.36419C13.8606 4.34981 13.1541 4.60134 12.6289 5.11609C12.1088 5.62576 11.7272 6.43251 11.7272 7.60294C11.7272 9.36554 11.666 10.5768 11.1275 11.6923C10.5929 12.7998 9.61735 13.753 7.98548 15.1129C7.75406 15.3057 7.41011 15.2744 7.21726 15.043C7.02441 14.8116 7.05567 14.4676 7.2871 14.2748C8.92796 12.9074 9.72516 12.0879 10.1451 11.2181C10.5611 10.3563 10.6363 9.38579 10.6363 7.60294C10.6363 6.18246 11.107 5.08012 11.8653 4.33695C12.6185 3.59886 13.6165 3.2538 14.6017 3.2735ZM18.0051 14.6938C18.9065 14.6966 19.6363 15.4282 19.6363 16.3302C19.6363 17.2339 18.9037 17.9665 18 17.9665C17.0962 17.9665 16.3636 17.2339 16.3636 16.3302C16.3636 15.4264 17.0962 14.6938 18 14.6938L18.0051 14.6938ZM14.7637 26.15C15.8053 23.8723 17.06 21.5238 18.0109 19.855C19.0037 21.5213 20.3026 23.8689 21.3528 26.1452C21.8801 27.2879 22.3408 28.4045 22.6687 29.4027C22.9999 30.4109 23.1817 31.2579 23.1817 31.8757C23.1817 35.3265 20.4966 37.0575 17.9999 37.0575C16.752 37.0575 15.3808 36.6178 14.3642 35.7552C13.3642 34.9067 12.6934 33.6406 12.8167 31.9145C12.8619 31.2818 13.0784 30.4238 13.428 29.4138C13.7747 28.412 14.2408 27.2933 14.7637 26.15Z" fill="#1E88E5"/>
<path fill-rule="evenodd" clip-rule="evenodd" d="M35.3941 30.8342L34.901 29.9096L34.4265 30.8439C33.9887 31.7058 33.327 33.1018 32.7604 34.498C32.2046 35.8672 31.7031 37.3236 31.6449 38.2668C31.4933 40.7245 33.3442 42 34.9128 42C36.5178 42 38.1817 40.6975 38.1817 38.3004C38.1817 37.7995 38.0499 37.1842 37.8614 36.5485C37.6699 35.9028 37.4072 35.1953 37.1194 34.4956C36.5438 33.0963 35.8547 31.6979 35.3941 30.8342ZM33.7712 34.9083C34.1444 33.9887 34.561 33.0668 34.9236 32.3062C35.3011 33.0668 35.7319 33.9901 36.1105 34.9106C36.3901 35.5903 36.6382 36.2608 36.8155 36.8587C36.9957 37.4665 37.0908 37.9602 37.0908 38.3004C37.0908 40.1087 35.9017 40.9091 34.9128 40.9091C33.8876 40.9091 32.626 40.0817 32.7338 38.3339C32.7793 37.595 33.2073 36.2977 33.7712 34.9083Z" fill="#1E88E5"/>
<path fill-rule="evenodd" clip-rule="evenodd" d="M35.4545 14.1818C35.4545 11.4168 33.4986 9.89214 31.5108 9.85238C30.5256 9.83268 29.5276 10.1777 28.7744 10.9158C28.0161 11.659 27.5454 12.7613 27.5454 14.1818C27.5454 15.9647 27.4702 16.9352 27.0542 17.7969C26.6343 18.6668 25.837 19.4863 24.1962 20.8537C23.9648 21.0465 23.9335 21.3905 24.1263 21.6219C24.3192 21.8533 24.6631 21.8846 24.8946 21.6917C26.5264 20.3318 27.502 19.3787 28.0366 18.2712C28.5751 17.1557 28.6363 15.9444 28.6363 14.1818C28.6363 13.0114 29.0179 12.2046 29.538 11.695C30.0632 11.1802 30.7697 10.9287 31.489 10.9431C32.9103 10.9715 34.3636 12.0378 34.3636 14.1818V20.2364C33.1187 20.4891 32.1818 21.5896 32.1818 22.9091C32.1818 24.1897 33.0644 25.2641 34.2545 25.5573C34.149 25.6404 34.0563 25.7461 33.9832 25.8743C33.0202 27.5632 31.7436 29.9509 30.6807 32.2752C30.1493 33.4371 29.6682 34.59 29.3062 35.6358C28.947 36.6734 28.6931 37.639 28.6377 38.4157C28.4882 40.5078 29.3175 42.1053 30.5675 43.1659C31.8009 44.2124 33.4296 44.7273 34.909 44.7273C37.8668 44.7273 41.1817 42.6401 41.1817 38.4545C41.1817 37.6615 40.9564 36.6828 40.6142 35.6411C40.2687 34.5895 39.7899 33.4319 39.2525 32.267C38.1775 29.937 36.8527 27.545 35.8453 25.8557C35.7725 25.7336 35.682 25.6328 35.58 25.5532C36.7618 25.2542 37.6363 24.1838 37.6363 22.9091C37.6363 21.5896 36.6993 20.489 35.4545 20.2363V14.1818ZM36.5454 22.9091C36.5454 22.0068 35.8152 21.2752 34.9136 21.2727L34.909 21.2727C34.0053 21.2727 33.2727 22.0053 33.2727 22.9091C33.2727 23.8128 34.0053 24.5454 34.909 24.5454C35.8128 24.5454 36.5454 23.8128 36.5454 22.9091ZM31.6727 32.7289C32.7144 30.4512 33.9691 28.1027 34.92 26.4339C35.9128 28.1002 37.2117 30.4478 38.2619 32.7241C38.7892 33.8668 39.2499 34.9834 39.5778 35.9816C39.909 36.9898 40.0908 37.8368 40.0908 38.4545C40.0908 41.9053 37.4057 43.6364 34.909 43.6364C33.6611 43.6364 32.2898 43.1966 31.2733 42.3341C30.2733 41.4856 29.6025 40.2195 29.7258 38.4934C29.771 37.8607 29.9875 37.0026 30.3371 35.9926C30.6838 34.9909 31.1499 33.8722 31.6727 32.7289Z" fill="#1E88E5"/>
</svg>
