<svg width="48" height="48" viewBox="0 0 48 48" fill="none" xmlns="http://www.w3.org/2000/svg">
<path d="M10.9092 39.5455H9.27279V41.1818H10.9092V39.5455Z" fill="#1E88E5"/>
<path d="M9.27279 11.7273H10.9092V13.3637H9.27279V11.7273Z" fill="#1E88E5"/>
<path fill-rule="evenodd" clip-rule="evenodd" d="M36.0001 38.4546C36.0001 36.3458 37.7095 34.6364 39.8182 34.6364C41.927 34.6364 43.6364 36.3458 43.6364 38.4546C43.6364 40.5633 41.927 42.2727 39.8182 42.2727C37.7095 42.2727 36.0001 40.5633 36.0001 38.4546ZM39.8182 35.7273C38.312 35.7273 37.091 36.9483 37.091 38.4546C37.091 39.9608 38.312 41.1818 39.8182 41.1818C41.3245 41.1818 42.5455 39.9608 42.5455 38.4546C42.5455 36.9483 41.3245 35.7273 39.8182 35.7273Z" fill="#1E88E5"/>
<path fill-rule="evenodd" clip-rule="evenodd" d="M5.72734 9.8182V11.4546H2.72734C2.42609 11.4546 2.18188 11.6988 2.18188 12C2.18188 12.3013 2.42609 12.5455 2.72734 12.5455H5.72734V14.7273H2.72734C2.42609 14.7273 2.18188 14.9715 2.18188 15.2727C2.18188 15.574 2.42609 15.8182 2.72734 15.8182H5.72734V18H2.72734C2.42609 18 2.18188 18.2442 2.18188 18.5455C2.18188 18.8467 2.42609 19.0909 2.72734 19.0909H5.72734V21.2728H2.72734C2.42609 21.2728 2.18188 21.517 2.18188 21.8182C2.18188 22.1195 2.42609 22.3637 2.72734 22.3637H5.72734V24.5455H2.72734C2.42609 24.5455 2.18188 24.7897 2.18188 25.0909C2.18188 25.3922 2.42609 25.6364 2.72734 25.6364H5.72734V27.8182H2.72734C2.42609 27.8182 2.18188 28.0624 2.18188 28.3637C2.18188 28.6649 2.42609 28.9091 2.72734 28.9091H5.72734V31.0909H2.72734C2.42609 31.0909 2.18188 31.3351 2.18188 31.6364C2.18188 31.9376 2.42609 32.1818 2.72734 32.1818H5.72734V34.3637H2.72734C2.42609 34.3637 2.18188 34.6079 2.18188 34.9091C2.18188 35.2104 2.42609 35.4546 2.72734 35.4546H5.72734V37.6364H2.72734C2.42609 37.6364 2.18188 37.8806 2.18188 38.1818C2.18188 38.4831 2.42609 38.7273 2.72734 38.7273H5.72734V40.9091H2.72734C2.42609 40.9091 2.18188 41.1533 2.18188 41.4546C2.18188 41.7558 2.42609 42 2.72734 42H5.72734V43.9091H2.72734C2.42609 43.9091 2.18188 44.1533 2.18188 44.4546C2.18188 44.7558 2.42609 45 2.72734 45H39.2728C39.3144 45 39.355 44.9953 39.394 44.9865C39.5343 44.9955 39.6757 45 39.8182 45C43.4332 45 46.3637 42.0695 46.3637 38.4546V9.27275C46.3637 5.6578 43.4332 2.72729 39.8182 2.72729C36.387 2.72729 33.5724 5.36755 33.2952 8.72729H2.72734C2.42609 8.72729 2.18188 8.9715 2.18188 9.27275C2.18188 9.574 2.42609 9.8182 2.72734 9.8182H5.72734ZM34.3637 9.27275C34.3637 6.26029 36.8058 3.8182 39.8182 3.8182C42.8307 3.8182 45.2728 6.26029 45.2728 9.27275V34.8352C44.1001 33.0715 42.0949 31.9091 39.8182 31.9091C37.5415 31.9091 35.5363 33.0715 34.3637 34.8352V9.27275ZM33.2728 9.8182V12H14.4546C13.5509 12 12.8182 12.7326 12.8182 13.6364V15C12.8182 15.3013 12.574 15.5455 12.2728 15.5455H10.9092C10.0054 15.5455 9.27279 16.2781 9.27279 17.1818V36C9.27279 36.9038 10.0054 37.6364 10.9092 37.6364H12.2728C12.574 37.6364 12.8182 37.8806 12.8182 38.1818V39.5455C12.8182 40.4492 13.5509 41.1818 14.4546 41.1818H33.8182C33.8341 41.1818 33.8498 41.1812 33.8654 41.1798C34.3756 42.2925 35.1885 43.2374 36.1988 43.9091H6.81825V9.8182H33.2728ZM14.4546 40.0909H33.479C33.3444 39.5679 33.2728 39.0196 33.2728 38.4546V37.3637H18.2728C17.3691 37.3637 16.6364 36.631 16.6364 35.7273V34.3637C16.6364 34.0624 16.3922 33.8182 16.091 33.8182H14.7273C13.8236 33.8182 13.091 33.0856 13.091 32.1818V21C13.091 20.0963 13.8236 19.3637 14.7273 19.3637H16.091C16.3922 19.3637 16.6364 19.1194 16.6364 18.8182V17.4546C16.6364 16.5508 17.3691 15.8182 18.2728 15.8182H33.2728V13.0909H14.4546C14.1534 13.0909 13.9092 13.3351 13.9092 13.6364V15C13.9092 15.9038 13.1765 16.6364 12.2728 16.6364H10.9092C10.6079 16.6364 10.3637 16.8806 10.3637 17.1818V36C10.3637 36.3013 10.6079 36.5455 10.9092 36.5455H12.2728C13.1765 36.5455 13.9092 37.2781 13.9092 38.1818V39.5455C13.9092 39.8467 14.1534 40.0909 14.4546 40.0909ZM33.2728 16.9091H18.2728C17.9715 16.9091 17.7273 17.1533 17.7273 17.4546V18.8182C17.7273 19.7219 16.9947 20.4546 16.091 20.4546H14.7273C14.4261 20.4546 14.1819 20.6988 14.1819 21V32.1818C14.1819 32.4831 14.4261 32.7273 14.7273 32.7273H16.091C16.9947 32.7273 17.7273 33.4599 17.7273 34.3637V35.7273C17.7273 36.0285 17.9715 36.2728 18.2728 36.2728H33.2728V33.5455H22.091C21.1872 33.5455 20.4546 32.8128 20.4546 31.9091V30.5455C20.4546 30.2442 20.2104 30 19.9092 30H18.5455C17.6418 30 16.9092 29.2674 16.9092 28.3637V24.8182C16.9092 23.9145 17.6418 23.1818 18.5455 23.1818H19.9092C20.2104 23.1818 20.4546 22.9376 20.4546 22.6364V21.2727C20.4546 20.369 21.1872 19.6364 22.091 19.6364H33.2728V16.9091ZM33.2728 20.7273V32.4546H22.091C21.7897 32.4546 21.5455 32.2104 21.5455 31.9091V30.5455C21.5455 29.6417 20.8129 28.9091 19.9092 28.9091H18.5455C18.2443 28.9091 18.0001 28.6649 18.0001 28.3637V24.8182C18.0001 24.517 18.2443 24.2727 18.5455 24.2727H19.9092C20.8129 24.2727 21.5455 23.5401 21.5455 22.6364V21.2727C21.5455 20.9715 21.7897 20.7273 22.091 20.7273H33.2728ZM39.8182 33C36.8058 33 34.3637 35.4421 34.3637 38.4546C34.3637 41.467 36.8058 43.9091 39.8182 43.9091C42.8307 43.9091 45.2728 41.467 45.2728 38.4546C45.2728 35.4421 42.8307 33 39.8182 33Z" fill="#1E88E5"/>
</svg>
