<svg width="48" height="48" viewBox="0 0 48 48" fill="none" xmlns="http://www.w3.org/2000/svg">
<path d="M15.113 24.3323C15.326 24.1192 15.326 23.7739 15.113 23.5609C14.9 23.3479 14.5546 23.3479 14.3416 23.5609L9.97796 27.9245C9.76495 28.1375 9.76495 28.4829 9.97796 28.6959C10.191 28.9089 10.5363 28.9089 10.7494 28.6959L15.113 24.3323Z" fill="#1E88E5"/>
<path d="M15.6584 26.7868C15.8715 26.5738 15.8715 26.2284 15.6584 26.0154C15.4454 25.8024 15.1001 25.8024 14.8871 26.0154L12.978 27.9245C12.7649 28.1375 12.7649 28.4829 12.978 28.6959C13.191 28.9089 13.5363 28.9089 13.7494 28.6959L15.6584 26.7868Z" fill="#1E88E5"/>
<path d="M37.2039 23.5609C37.4169 23.7739 37.4169 24.1192 37.2039 24.3323L32.8403 28.6959C32.6273 28.9089 32.2819 28.9089 32.0689 28.6959C31.8559 28.4829 31.8559 28.1375 32.0689 27.9245L36.4325 23.5609C36.6455 23.3479 36.9909 23.3479 37.2039 23.5609Z" fill="#1E88E5"/>
<path d="M37.7494 26.7868C37.9624 26.5738 37.9624 26.2284 37.7494 26.0154C37.5363 25.8024 37.191 25.8024 36.978 26.0154L35.0689 27.9245C34.8559 28.1375 34.8559 28.4829 35.0689 28.6959C35.2819 28.9089 35.6273 28.9089 35.8403 28.6959L37.7494 26.7868Z" fill="#1E88E5"/>
<path fill-rule="evenodd" clip-rule="evenodd" d="M9.22109 15.2516C10.4906 14.0274 12.4334 13.832 13.9213 14.7789L14.7474 15.3046C15.0016 15.4663 15.0765 15.8034 14.9147 16.0576C14.753 16.3117 14.4159 16.3867 14.1617 16.2249L13.3356 15.6992C12.2728 15.0229 10.8851 15.1625 9.97833 16.0369L5.45249 20.4011H19.0455C19.8482 20.4011 20.5785 20.7117 21.1225 21.2193H26.3321C26.8761 20.7117 27.6063 20.4011 28.4091 20.4011H40.0909C40.156 20.4011 40.2207 20.403 40.2849 20.4068C40.3106 20.403 40.3369 20.4011 40.3637 20.4011H42.2748L37.749 16.0369C36.8422 15.1625 35.4545 15.0229 34.3917 15.6992L33.5656 16.2249C33.3114 16.3867 32.9743 16.3117 32.8126 16.0576C32.6508 15.8034 32.7257 15.4663 32.9799 15.3046L33.806 14.7789C35.2939 13.832 37.2367 14.0274 38.5062 15.2516L43.9645 20.5149C44.5709 20.7544 45 21.3458 45 22.0375V22.0586C45 22.5557 44.7741 23.0259 44.3859 23.3364L43.4317 24.0998C43.4099 24.1172 43.3871 24.1327 43.3637 24.1463V26.4011C43.3637 30.3173 40.1889 33.492 36.2727 33.492H35.4091C30.8251 33.492 26.9583 30.4216 25.7529 26.2253L24.0299 25.0765C23.8466 24.9544 23.6079 24.9544 23.4247 25.0765L21.7017 26.2252C20.4963 30.4216 16.6295 33.492 12.0455 33.492H11.1818C7.26564 33.492 4.09093 30.3173 4.09093 26.4011V23.936L3.34143 23.3364C2.95326 23.0259 2.72729 22.5557 2.72729 22.0586V22.0375C2.72729 21.3458 3.15637 20.7544 3.76285 20.5149L9.22109 15.2516ZM43.2571 22.8424L43.7044 22.4845C43.8338 22.381 43.9091 22.2243 43.9091 22.0586V22.0375C43.9091 21.9359 43.8814 21.8409 43.833 21.7595C43.723 21.744 43.6166 21.695 43.5305 21.6119L43.408 21.4938C43.3933 21.4926 43.3786 21.492 43.3637 21.492H42.5303C42.8709 21.8726 43.1238 22.3333 43.2571 22.8424ZM4.19682 21.6119C4.11071 21.695 4.00433 21.744 3.89428 21.7595C3.84595 21.8409 3.8182 21.9359 3.8182 22.0375V22.0586C3.8182 22.2243 3.89353 22.381 4.02292 22.4845L4.24919 22.6656C4.39124 22.2265 4.62356 21.828 4.92427 21.492H4.36366C4.34874 21.492 4.33396 21.4926 4.31934 21.4938L4.19682 21.6119ZM5.18184 23.6699L5.18184 26.4011C5.18184 29.7148 7.86813 32.4011 11.1818 32.4011H12.0455C16.9909 32.4011 21 28.392 21 23.4466C21 22.3671 20.1249 21.492 19.0455 21.492H7.36366C6.15998 21.492 5.18395 22.4667 5.18184 23.6699ZM22.0909 23.4466C22.0909 23.0449 22.0132 22.6613 21.8719 22.3102H25.5827C25.4414 22.6613 25.3637 23.0449 25.3637 23.4466C25.3637 23.8734 25.3903 24.294 25.4419 24.7068L24.635 24.1689C24.0853 23.8024 23.3692 23.8024 22.8196 24.1689L22.0126 24.7068C22.0643 24.294 22.0909 23.8734 22.0909 23.4466ZM42.2727 23.6738C42.2727 22.4689 41.2959 21.492 40.0909 21.492H28.4091C27.3296 21.492 26.4546 22.3671 26.4546 23.4466C26.4546 28.392 30.4637 32.4011 35.4091 32.4011H36.2727C39.5865 32.4011 42.2727 29.7148 42.2727 26.4011V23.6738Z" fill="#1E88E5"/>
</svg>
