<svg width="48" height="48" viewBox="0 0 48 48" fill="none" xmlns="http://www.w3.org/2000/svg">
<path d="M34.3637 18.2727C34.3637 18.7246 33.9973 19.0909 33.5455 19.0909C33.0936 19.0909 32.7273 18.7246 32.7273 18.2727C32.7273 17.8208 33.0936 17.4545 33.5455 17.4545C33.9973 17.4545 34.3637 17.8208 34.3637 18.2727Z" fill="#1E88E5"/>
<path d="M27 19.0909C27.4519 19.0909 27.8182 18.7246 27.8182 18.2727C27.8182 17.8208 27.4519 17.4545 27 17.4545C26.5482 17.4545 26.1818 17.8208 26.1818 18.2727C26.1818 18.7246 26.5482 19.0909 27 19.0909Z" fill="#1E88E5"/>
<path d="M21.2727 18.2727C21.2727 18.7246 20.9064 19.0909 20.4546 19.0909C20.0027 19.0909 19.6364 18.7246 19.6364 18.2727C19.6364 17.8208 20.0027 17.4545 20.4546 17.4545C20.9064 17.4545 21.2727 17.8208 21.2727 18.2727Z" fill="#1E88E5"/>
<path d="M13.9091 19.0909C14.361 19.0909 14.7273 18.7246 14.7273 18.2727C14.7273 17.8208 14.361 17.4545 13.9091 17.4545C13.4572 17.4545 13.0909 17.8208 13.0909 18.2727C13.0909 18.7246 13.4572 19.0909 13.9091 19.0909Z" fill="#1E88E5"/>
<path d="M31.6364 14.4545C31.6364 14.9064 31.2701 15.2727 30.8182 15.2727C30.3663 15.2727 30 14.9064 30 14.4545C30 14.0027 30.3663 13.6363 30.8182 13.6363C31.2701 13.6363 31.6364 14.0027 31.6364 14.4545Z" fill="#1E88E5"/>
<path d="M24.2727 15.2727C24.7246 15.2727 25.0909 14.9064 25.0909 14.4545C25.0909 14.0027 24.7246 13.6363 24.2727 13.6363C23.8209 13.6363 23.4546 14.0027 23.4546 14.4545C23.4546 14.9064 23.8209 15.2727 24.2727 15.2727Z" fill="#1E88E5"/>
<path d="M17.1818 15.2727C17.6337 15.2727 18 14.9064 18 14.4545C18 14.0027 17.6337 13.6363 17.1818 13.6363C16.73 13.6363 16.3637 14.0027 16.3637 14.4545C16.3637 14.9064 16.73 15.2727 17.1818 15.2727Z" fill="#1E88E5"/>
<path fill-rule="evenodd" clip-rule="evenodd" d="M41.4339 15.8182L41.4546 15.8182H42C43.8075 15.8182 45.2728 17.2834 45.2728 19.0909V19.508C45.2728 20.949 44.2054 22.1407 42.8182 22.3357V28.3636C42.8182 29.7485 42.173 30.9828 41.1669 31.7821L42.2181 36.1971C42.4605 37.2153 41.8666 38.2458 40.8641 38.5466C39.7847 38.8704 38.6536 38.227 38.3803 37.1337L37.7856 34.7547C37.5747 34.8537 37.3393 34.9091 37.0909 34.9091H10.3637C10.2324 34.9091 10.1048 34.8936 9.98251 34.8644L9.34701 37.4064C9.0737 38.4997 7.94258 39.1431 6.86319 38.8193C5.8607 38.5186 5.26684 37.488 5.50926 36.4699L6.56031 32.0554C6.57819 31.9804 6.61078 31.9127 6.65431 31.8546C5.59458 31.0585 4.90911 29.7911 4.90911 28.3636V22.3303C3.67206 22.1308 2.72729 21.058 2.72729 19.7647V19.0909C2.72729 17.2834 4.19254 15.8182 6.00002 15.8182H6.02069C6.29921 12.1568 9.35826 9.27271 13.0909 9.27271H34.3637C38.0963 9.27271 41.1554 12.1569 41.4339 15.8182ZM7.10976 15.8847C8.80808 16.2119 10.0909 17.7061 10.0909 19.5V25.2738C10.883 24.172 12.1759 23.4545 13.6364 23.4545H20.1818C21.8248 23.4545 23.2556 24.3625 24 25.704C24.7444 24.3625 26.1753 23.4545 27.8182 23.4545H34.3637C35.667 23.4545 36.8368 24.0259 37.6364 24.9318V19.6363C37.6364 17.9111 38.7806 16.4531 40.3516 15.9799C40.1537 12.845 37.5485 10.3636 34.3637 10.3636H13.0909C9.93841 10.3636 7.35375 12.7949 7.10976 15.8847ZM8.72729 33.2727C8.72729 33.6213 8.83631 33.9445 9.02212 34.2099L9.01631 34.2313L8.28868 37.1419C8.16631 37.6313 7.65991 37.9194 7.17666 37.7744C6.72785 37.6398 6.46197 37.1784 6.5705 36.7226L7.60077 32.3954C7.95511 32.5426 8.33304 32.6443 8.72729 32.6935V33.2727ZM38.6415 33.797C38.6725 33.8455 38.6963 33.8997 38.711 33.9586L39.4386 36.8691C39.561 37.3586 40.0674 37.6466 40.5507 37.5017C40.9995 37.367 41.2653 36.9057 41.1568 36.4498L40.1855 32.3705C39.7339 32.5658 39.2427 32.6871 38.7273 32.7189V33.2727C38.7273 33.4561 38.6971 33.6324 38.6415 33.797ZM37.6364 33.2727V32.7272H9.8182V33.2727C9.8182 33.5739 10.0624 33.8182 10.3637 33.8182H37.0909C37.3922 33.8182 37.6364 33.5739 37.6364 33.2727ZM38.4546 31.6363H9.27275C7.46527 31.6363 6.00002 30.1711 6.00002 28.3636V21.9465C6.00002 21.5744 5.69835 21.2727 5.32623 21.2727C4.49337 21.2727 3.8182 20.5975 3.8182 19.7647V19.0909C3.8182 17.8859 4.79504 16.9091 6.00002 16.9091H6.40911C7.84003 16.9091 9.00002 18.0691 9.00002 19.5V27.2727C9.00002 27.8752 9.48844 28.3636 10.0909 28.3636H37.6364C38.0402 28.3636 38.3927 28.1442 38.5814 27.8182H38.7273C38.7273 27.6955 38.7222 27.574 38.7123 27.4539C38.7222 27.395 38.7273 27.3344 38.7273 27.2727V19.6363C38.7273 18.1301 39.9483 16.9091 41.4546 16.9091H42C43.205 16.9091 44.1818 17.8859 44.1818 19.0909V19.508C44.1818 20.4826 43.3918 21.2727 42.4171 21.2727C42.0361 21.2727 41.7273 21.5816 41.7273 21.9625V28.3636C41.7273 30.1711 40.262 31.6363 38.4546 31.6363ZM23.4093 27.2727H10.4089C10.6686 25.7249 12.0148 24.5454 13.6364 24.5454H20.1818C21.8035 24.5454 23.1496 25.7249 23.4093 27.2727ZM37.5911 27.2727C37.3315 25.7249 35.9853 24.5454 34.3637 24.5454H27.8182C26.1966 24.5454 24.8504 25.7249 24.5907 27.2727H37.5911Z" fill="#1E88E5"/>
</svg>
