<svg width="48" height="48" viewBox="0 0 48 48" fill="none" xmlns="http://www.w3.org/2000/svg">
<path fill-rule="evenodd" clip-rule="evenodd" d="M44 6.22222C44 4.99492 43.0051 4 41.7778 4L6.22222 4C4.99492 4 4 4.99492 4 6.22222L4 41.7778C4 43.0051 4.99492 44 6.22222 44L41.7778 44C43.0051 44 44 43.0051 44 41.7778L44 6.22222ZM5.11111 32.8889L5.11111 6.22222C5.11111 5.60857 5.60857 5.11111 6.22222 5.11111L41.7778 5.11111C42.3914 5.11111 42.8889 5.60857 42.8889 6.22222L42.8889 17.3333L17.6531 17.3333L13.307 12.9438C13.2052 12.8275 13.0556 12.7541 12.8889 12.7541C11.8575 12.7541 10.8683 13.1638 10.139 13.8931C9.40972 14.6224 9 15.6116 9 16.643C9 17.6356 9.35886 18.8001 10.1127 19.5539L10.1136 19.5549L10.112 19.5565L23.3456 32.728C23.3867 32.7732 23.429 32.8176 23.4724 32.861C23.4817 32.8703 23.4911 32.8796 23.5006 32.8889L5.11111 32.8889ZM26.2222 32.8889L42.8889 32.8889L42.8889 18.4444L18.7532 18.4444L26.615 26.3848C26.7156 26.4854 26.7778 26.6243 26.7778 26.7778C26.7778 27.0846 26.529 27.3333 26.2222 27.3333C25.4855 27.3333 24.779 27.626 24.258 28.1469C23.7371 28.6679 23.4444 29.3744 23.4444 30.1111C23.4444 30.7955 23.697 31.4539 24.1506 31.9616L24.2919 32.1023L24.2887 32.1055C24.8065 32.6075 25.4999 32.8889 26.2222 32.8889ZM5.11111 34L5.11111 41.7778C5.11111 42.3914 5.60857 42.8889 6.22222 42.8889L41.7778 42.8889C42.3914 42.8889 42.8889 42.3914 42.8889 41.7778L42.8889 34L5.11111 34ZM10.9247 14.6788C11.3925 14.211 12.01 13.9273 12.6646 13.8743L25.0648 26.3984C24.4693 26.5841 23.9216 26.9121 23.4724 27.3612C22.7431 28.0906 22.3333 29.0797 22.3333 30.1111C22.3333 30.1251 22.3334 30.1391 22.3336 30.1531L10.9317 18.8047C10.9212 18.7922 10.9101 18.78 10.8984 18.7683C10.402 18.2719 10.1111 17.4185 10.1111 16.643C10.1111 15.9063 10.4038 15.1997 10.9247 14.6788Z" fill="#1E88E5"/>
</svg>
