<svg width="48" height="48" viewBox="0 0 48 48" fill="none" xmlns="http://www.w3.org/2000/svg">
<path fill-rule="evenodd" clip-rule="evenodd" d="M39.0541 16.6786C40.3403 15.7487 42.1197 15.9331 43.1878 17.1069C44.4447 18.4882 44.214 20.6569 42.6947 21.7429L18.9879 38.6876C17.3801 39.8368 15.4533 40.4546 13.4771 40.4546H7.10693C5.39102 40.4546 4 39.0636 4 37.3477C4 35.6318 5.39102 34.2408 7.10692 34.2408H12.4118C13.9403 34.2408 15.4299 33.7587 16.6686 32.8631L39.0541 16.6786ZM42.3401 17.8784C41.6645 17.136 40.5392 17.0194 39.7257 17.6075L17.3402 33.792C15.9061 34.8289 14.1815 35.387 12.4118 35.387H7.10692C6.02407 35.387 5.14624 36.2649 5.14624 37.3477C5.14624 38.4306 6.02407 39.3084 7.10693 39.3084H13.4771C15.2143 39.3084 16.9081 38.7653 18.3214 37.7551L42.0282 20.8104C42.9891 20.1236 43.135 18.7519 42.3401 17.8784Z" fill="#1E88E5"/>
<path fill-rule="evenodd" clip-rule="evenodd" d="M31.0757 7.47025C30.8232 7.71799 30.5897 8.1643 30.4827 8.92241C30.4553 9.11616 30.433 9.31592 30.4093 9.52766C30.4068 9.54967 30.4044 9.57181 30.4019 9.59409C30.3757 9.82701 30.3475 10.0727 30.3098 10.318C30.235 10.806 30.1187 11.3272 29.8817 11.8098C29.4134 12.7632 28.7268 13.3272 27.8903 13.5936C27.0842 13.8503 26.1851 13.8158 25.2966 13.684C24.5918 13.5794 23.8425 13.4041 23.106 13.2319C22.9146 13.1871 22.724 13.1426 22.5353 13.0995C21.6022 12.8865 20.696 12.7049 19.8391 12.6659C19.416 12.6467 19.0345 12.7795 18.6956 13.1825C18.3331 13.6136 17.9945 14.3862 17.7986 15.6942L17.7936 15.7272L17.7849 15.7594C17.5592 16.591 17.349 17.3852 17.1473 18.1474C16.3326 21.2256 15.6563 23.7812 14.6545 26.1628C13.3923 29.1636 11.6163 31.8904 8.41957 35.1262C8.19711 35.3514 7.83424 35.3536 7.60907 35.1311C7.38389 34.9087 7.38169 34.5458 7.60414 34.3206C10.7118 31.175 12.3994 28.5678 13.598 25.7184C14.5658 23.4174 15.2166 20.9596 16.0287 17.8925C16.2301 17.1318 16.4415 16.3336 16.67 15.4911C16.8816 14.1031 17.266 13.1016 17.8183 12.4448C18.3985 11.7547 19.1305 11.4862 19.8912 11.5209C20.8588 11.5649 21.8513 11.7676 22.7903 11.982C22.9944 12.0285 23.1952 12.0755 23.3929 12.1217C24.1232 12.2923 24.8116 12.4532 25.4649 12.5501C26.2945 12.6733 26.9861 12.6786 27.5425 12.5014C28.0684 12.3339 28.516 11.9904 28.8528 11.3045C29.0146 10.9751 29.109 10.5867 29.1768 10.1443C29.2106 9.92436 29.2366 9.69953 29.2628 9.46631C29.2653 9.44399 29.2678 9.42157 29.2703 9.39906C29.2937 9.19003 29.3179 8.97342 29.3477 8.76218C29.476 7.85344 29.7798 7.13583 30.273 6.65203C30.7788 6.15575 31.4225 5.96572 32.0919 6.005C33.3777 6.08043 34.8042 6.99339 35.9939 8.2621C37.1588 9.50437 38.409 10.8677 39.3224 12.2327C40.2249 13.5813 40.877 15.0438 40.674 16.4646C40.6293 16.7779 40.339 16.9956 40.0256 16.9509C39.7123 16.9061 39.4946 16.6158 39.5393 16.3025C39.6798 15.3189 39.2345 14.1623 38.3698 12.8701C37.5159 11.5943 36.3289 10.295 35.1578 9.04617C34.0445 7.85902 32.876 7.19922 32.0248 7.14927C31.6258 7.12586 31.3155 7.23499 31.0757 7.47025Z" fill="#1E88E5"/>
<path fill-rule="evenodd" clip-rule="evenodd" d="M16.0448 18.5735C16.1014 18.2621 16.3998 18.0555 16.7112 18.1121L23.0155 19.2584C23.327 19.315 23.5335 19.6133 23.4769 19.9248C23.4203 20.2362 23.1219 20.4427 22.8105 20.3861L16.5062 19.2399C16.1947 19.1833 15.9882 18.8849 16.0448 18.5735Z" fill="#1E88E5"/>
<path fill-rule="evenodd" clip-rule="evenodd" d="M15.4736 22.5755C15.5356 22.2651 15.8376 22.0638 16.148 22.1259L21.8792 23.2721C22.1896 23.3342 22.3908 23.6361 22.3288 23.9465C22.2667 24.2569 21.9648 24.4582 21.6544 24.3961L15.9232 23.2498C15.6128 23.1878 15.4115 22.8858 15.4736 22.5755Z" fill="#1E88E5"/>
<path fill-rule="evenodd" clip-rule="evenodd" d="M35.8736 9.05366C36.1234 9.24799 36.1684 9.60807 35.9741 9.85792C34.7112 11.4816 32.592 15.525 34.346 20.7873C34.4461 21.0875 34.2839 21.4121 33.9836 21.5122C33.6833 21.6123 33.3587 21.45 33.2586 21.1497C31.3447 15.408 33.6576 10.9693 35.0693 9.15419C35.2636 8.90434 35.6237 8.85933 35.8736 9.05366Z" fill="#1E88E5"/>
</svg>
