<svg width="48" height="48" viewBox="0 0 48 48" fill="none" xmlns="http://www.w3.org/2000/svg">
<path fill-rule="evenodd" clip-rule="evenodd" d="M10.9964 23.8167C10.0927 23.8167 9.36006 24.5494 9.36006 25.4531V27.6349C9.36006 28.5387 10.0927 29.2713 10.9964 29.2713H11.6464L14.6419 43.2505C14.8036 44.005 15.4704 44.544 16.242 44.544H29.2054C29.977 44.544 30.6438 44.005 30.8055 43.2505L33.801 29.2713H34.451C35.3547 29.2713 36.0873 28.5387 36.0873 27.6349V25.4531C36.0873 24.5494 35.3547 23.8167 34.451 23.8167H10.9964ZM32.6853 29.2713H12.762L15.7086 43.0219C15.7625 43.2734 15.9848 43.4531 16.242 43.4531H29.2054C29.4626 43.4531 29.6849 43.2734 29.7388 43.0219L32.6853 29.2713ZM34.451 28.1804C34.7522 28.1804 34.9964 27.9362 34.9964 27.6349V25.4531C34.9964 25.1519 34.7522 24.9076 34.451 24.9076H10.9964C10.6952 24.9076 10.451 25.1519 10.451 25.4531V27.6349C10.451 27.9362 10.6952 28.1804 10.9964 28.1804H34.451Z" fill="#1E88E5"/>
<path fill-rule="evenodd" clip-rule="evenodd" d="M31.327 9.83417C31.5182 10.067 31.4845 10.4107 31.2517 10.6019C30.0208 11.613 28.1509 13.534 26.5926 15.9761C25.0327 18.4206 23.8146 21.3407 23.8146 24.3622C23.8146 24.6635 23.5704 24.9077 23.2692 24.9077C22.9679 24.9077 22.7237 24.6635 22.7237 24.3622C22.7237 21.0564 24.051 17.9311 25.673 15.3893C27.2965 12.8449 29.2448 10.8387 30.5593 9.7589C30.7921 9.56769 31.1358 9.60139 31.327 9.83417Z" fill="#1E88E5"/>
<path fill-rule="evenodd" clip-rule="evenodd" d="M14.8169 13.4037C14.8441 13.1037 15.1094 12.8826 15.4094 12.9099C17.5678 13.1061 22.272 14.8769 24.3253 20.3525C24.4311 20.6346 24.2882 20.949 24.0061 21.0547C23.7241 21.1605 23.4097 21.0176 23.3039 20.7355C21.43 15.7384 17.1524 14.1637 15.3107 13.9963C15.0107 13.969 14.7896 13.7037 14.8169 13.4037Z" fill="#1E88E5"/>
<path fill-rule="evenodd" clip-rule="evenodd" d="M20.1062 11.6276C20.8348 12.6219 21.1975 13.9694 21.0992 15.7421C21.0851 15.9964 20.9758 16.2455 20.8011 16.428C19.4627 17.8263 18.1436 18.5313 16.8606 18.6482C15.5729 18.7655 14.422 18.2813 13.4428 17.5061C11.5126 15.9781 10.1117 13.2151 9.33529 11.0136C9.09308 10.3268 9.58535 9.64114 10.2711 9.58173C10.3995 9.5706 10.5317 9.55886 10.6672 9.54683C12.5661 9.37818 15.1176 9.15156 17.2009 9.74047C18.3356 10.0612 19.3788 10.635 20.1062 11.6276ZM10.7185 10.6376C10.6008 10.648 10.4847 10.6582 10.3702 10.6681C11.1271 12.8078 12.4402 15.321 14.12 16.6508C14.9481 17.3064 15.8289 17.6468 16.7617 17.5618C17.6984 17.4765 18.7874 16.9531 20.01 15.6769L20.0102 15.6763C20.0976 14.085 19.7664 13.0095 19.2263 12.2725C18.6844 11.533 17.8832 11.067 16.9041 10.7902C15.0239 10.2587 12.6643 10.4664 10.7185 10.6376Z" fill="#1E88E5"/>
<path fill-rule="evenodd" clip-rule="evenodd" d="M25.985 9.71042C25.5225 11.2361 25.564 13.2262 26.4455 15.8107C26.4455 15.8107 26.4465 15.8121 26.4472 15.813C26.448 15.8139 26.4492 15.8152 26.4492 15.8152C28.6202 17.0891 30.3472 17.357 31.7173 17.0406C33.0897 16.7237 34.2106 15.7961 35.1171 14.4611C36.9421 11.7732 37.77 7.61672 37.9695 4.40903C35.0821 4.21713 31.3018 4.59552 28.7085 6.25016C27.4251 7.06908 26.4456 8.19092 25.985 9.71042ZM26.446 15.8133L26.4465 15.8136L26.446 15.8133ZM28.1218 5.3305C31.0104 3.48745 35.082 3.12081 38.063 3.32193C38.653 3.36174 39.0957 3.86849 39.0595 4.4567C38.8581 7.73235 38.0136 12.1372 36.0196 15.0739C35.0148 16.5538 33.6867 17.7055 31.9628 18.1036C30.2373 18.502 28.2217 18.1209 25.8936 16.7541C25.672 16.6239 25.4972 16.4096 25.4142 16.1665C24.4814 13.4335 24.3935 11.2 24.941 9.39394C25.4906 7.58092 26.6613 6.26235 28.1218 5.3305Z" fill="#1E88E5"/>
</svg>
