<svg width="48" height="48" viewBox="0 0 48 48" fill="none" xmlns="http://www.w3.org/2000/svg">
<path fill-rule="evenodd" clip-rule="evenodd" d="M24.1797 22.5926C25.2612 22.5926 26.1379 21.7159 26.1379 20.6344C26.1379 19.5529 25.2612 18.6762 24.1797 18.6762C23.0983 18.6762 22.2215 19.5529 22.2215 20.6344C22.2215 21.7159 23.0983 22.5926 24.1797 22.5926ZM24.1797 21.5017C24.6587 21.5017 25.047 21.1134 25.047 20.6344C25.047 20.1554 24.6587 19.7671 24.1797 19.7671C23.7007 19.7671 23.3125 20.1554 23.3125 20.6344C23.3125 21.1134 23.7007 21.5017 24.1797 21.5017Z" fill="#1E88E5"/>
<path fill-rule="evenodd" clip-rule="evenodd" d="M24.1331 29.3437L24.587 30.0245C24.9154 30.5171 25.2839 31.0205 25.6631 31.5386L25.7206 31.6172C26.1169 32.1586 26.5223 32.7151 26.8844 33.269C27.5941 34.3547 28.2089 35.5325 28.2089 36.6816C28.2089 38.9325 26.3841 40.7573 24.1331 40.7573C21.8821 40.7573 20.0574 38.9325 20.0574 36.6816C20.0574 35.5325 20.6722 34.3547 21.3819 33.269C21.7439 32.7151 22.1494 32.1586 22.5456 31.6172L22.6031 31.5387C22.9823 31.0206 23.3509 30.5171 23.6793 30.0245L24.1331 29.3437ZM22.295 33.8659C21.5926 34.9405 21.1483 35.8809 21.1483 36.6816C21.1483 38.33 22.4846 39.6664 24.1331 39.6664C25.7816 39.6664 27.118 38.33 27.118 36.6816C27.118 35.8809 26.6737 34.9405 25.9713 33.8659C25.6273 33.3397 25.2384 32.8055 24.8403 32.2615L24.7783 32.1767C24.5625 31.8819 24.3445 31.5842 24.1331 31.2867C23.9218 31.5841 23.7039 31.8817 23.4882 32.1765L23.426 32.2615C23.0278 32.8055 22.639 33.3397 22.295 33.8659Z" fill="#1E88E5"/>
<path fill-rule="evenodd" clip-rule="evenodd" d="M4.82184 4.06771C4.65841 3.81465 4.32077 3.742 4.06771 3.90543C3.81465 4.06886 3.742 4.4065 3.90543 4.65956C5.03045 6.40153 6.66762 7.96685 8.70802 9.2755C10.7489 10.5844 13.1614 11.6164 15.805 12.3188C17.1319 12.6713 18.5056 12.9377 19.9058 13.1156C20.0111 14.7318 21.0227 16.1008 22.4375 16.7194C20.9418 17.3734 19.8967 18.866 19.8967 20.6028C19.8967 22.7504 21.4947 24.5247 23.5665 24.8016C23.5344 24.8477 23.502 24.8939 23.4696 24.9401C22.9835 25.6325 22.4717 26.3318 21.958 27.0336C19.5358 30.3426 17.0724 33.708 17.0724 36.6815C17.0724 40.581 20.2335 43.7421 24.1329 43.7421C28.0324 43.7421 31.1935 40.581 31.1935 36.6815C31.1935 33.708 28.7301 30.3426 26.3079 27.0336C25.7942 26.3318 25.2824 25.6325 24.7963 24.9401C24.7639 24.8939 24.7316 24.8477 24.6994 24.8016C26.7713 24.5248 28.3694 22.7504 28.3694 20.6028C28.3694 18.866 27.3243 17.3733 25.8286 16.7194C27.2433 16.1009 28.2549 14.732 28.3603 13.116C29.7614 12.938 31.136 12.6715 32.4637 12.3188C35.1073 11.6165 37.5198 10.5844 39.5607 9.27551C41.6011 7.96686 43.2383 6.40153 44.3633 4.65956C44.5267 4.4065 44.454 4.06887 44.201 3.90543C43.9479 3.742 43.6103 3.81466 43.4469 4.06771C42.421 5.65614 40.9056 7.1169 38.9717 8.35724C37.0383 9.59729 34.7326 10.5872 32.1836 11.2644C30.9256 11.5986 29.622 11.853 28.2918 12.0249C27.9134 10.0732 26.1953 8.59964 24.133 8.59964C22.0709 8.59964 20.3528 10.0731 19.9743 12.0246C18.645 11.8527 17.3423 11.5984 16.0851 11.2644C13.536 10.5872 11.2304 9.59729 9.29697 8.35723C7.36309 7.1169 5.84769 5.65614 4.82184 4.06771ZM27.2779 12.8262C27.2779 12.9657 27.2688 13.1031 27.2513 13.2378L27.2531 13.2377C27.0558 14.7852 25.7341 15.9814 24.133 15.9814C23.4025 15.9814 22.7301 15.7324 22.1962 15.3146C21.4549 14.7382 20.9779 13.8379 20.9779 12.8262C20.9779 11.0865 22.3882 9.67623 24.1279 9.67623C25.8676 9.67623 27.2779 11.0865 27.2779 12.8262ZM27.2785 20.6028C27.2785 22.34 25.8702 23.7482 24.133 23.7482C22.3959 23.7482 20.9876 22.34 20.9876 20.6028C20.9876 18.8656 22.3959 17.4573 24.133 17.4573C25.8702 17.4573 27.2785 18.8656 27.2785 20.6028ZM24.1329 42.6512C27.4299 42.6512 30.1026 39.9785 30.1026 36.6815C30.1026 35.0803 29.2141 33.1995 27.8092 31.0502C27.1212 29.9978 26.3435 28.9294 25.5473 27.8414L25.4232 27.6718C24.9916 27.0822 24.5557 26.4867 24.1329 25.8918C23.7102 26.4867 23.2743 27.0822 22.8427 27.6718L22.7186 27.8414C21.9224 28.9294 21.1447 29.9978 20.4567 31.0502C19.0518 33.1995 18.1633 35.0803 18.1633 36.6815C18.1633 39.9785 20.836 42.6512 24.1329 42.6512Z" fill="#1E88E5"/>
</svg>
