<svg width="48" height="48" viewBox="0 0 48 48" fill="none" xmlns="http://www.w3.org/2000/svg">
<path fill-rule="evenodd" clip-rule="evenodd" d="M14.7404 34.9545C15.7011 34.8691 16.6676 34.8691 17.6284 34.9545L18.1238 34.9985C18.6998 35.0497 19.1722 35.4765 19.2814 36.0443C19.404 36.6823 19.404 37.3379 19.2814 37.9759C19.1722 38.5437 18.6998 38.9705 18.1238 39.0217L17.6284 39.0657C16.6676 39.1511 15.7011 39.1511 14.7404 39.0657L14.2449 39.0217C13.6689 38.9705 13.1966 38.5437 13.0874 37.9759C12.9647 37.3379 12.9647 36.6823 13.0874 36.0443C13.1966 35.4765 13.6689 35.0497 14.2449 34.9985L14.7404 34.9545ZM17.5318 36.0411C16.6353 35.9614 15.7335 35.9614 14.8369 36.0411L14.3415 36.0852C14.2505 36.0932 14.1759 36.1606 14.1586 36.2503C14.0621 36.7522 14.0621 37.268 14.1586 37.7699C14.1759 37.8596 14.2505 37.927 14.3415 37.935L14.8369 37.9791C15.7335 38.0588 16.6353 38.0588 17.5318 37.9791L18.0273 37.935C18.1182 37.927 18.1928 37.8596 18.2101 37.7699C18.3066 37.268 18.3066 36.7522 18.2101 36.2503C18.1928 36.1606 18.1182 36.0932 18.0273 36.0852L17.5318 36.0411Z" fill="#1E88E5"/>
<path fill-rule="evenodd" clip-rule="evenodd" d="M38.5392 3.69011C38.6105 3.71952 38.6811 3.74862 38.7506 3.77641C39.0303 3.88829 39.1663 4.20573 39.0544 4.48543C38.9426 4.76513 38.6251 4.90117 38.3454 4.78929C38.2708 4.75944 38.1997 4.73061 38.1316 4.70299C37.5308 4.45941 37.1614 4.30961 36.6444 4.38011L36.6323 4.38179C36.4722 6.12571 35.5512 8.42748 34.5248 10.275C34.0024 11.2152 33.437 12.0667 32.9029 12.6913C32.6367 13.0026 32.3657 13.2724 32.0998 13.469C31.848 13.6551 31.5307 13.8283 31.1844 13.8283C30.8454 13.8283 30.5432 13.6712 30.3003 13.4894C30.0502 13.3022 29.8065 13.0462 29.5731 12.7534C29.1053 12.1664 28.6255 11.3621 28.1738 10.4586C27.2801 8.67123 26.4547 6.41153 26.0301 4.46869C25.8127 4.43759 25.5952 4.43243 25.3755 4.45265C24.4523 4.53766 23.3722 5.08066 22.0058 6.32281C19.5628 8.54375 18.9343 9.1316 18.3481 9.71031L23.2753 13.9948V11.101C23.2753 10.7998 23.5195 10.5556 23.8207 10.5556C24.122 10.5556 24.3662 10.7998 24.3662 11.101V18.5915C25.4945 18.8657 27.9636 19.2828 31.1844 19.2828C34.3215 19.2828 36.8786 18.7526 38.1297 18.3873C38.172 18.3368 38.2214 18.2959 38.2753 18.2649V14.9248C38.2752 14.9213 38.2752 14.9178 38.2753 14.9143V11.101C38.2753 10.7998 38.5195 10.5556 38.8207 10.5556C39.122 10.5556 39.3662 10.7998 39.3662 11.101V13.7997L44.2405 9.98498L40.0962 6.32821C39.8703 6.1289 39.8488 5.78421 40.0481 5.55833C40.2474 5.33244 40.5921 5.3109 40.818 5.51021L45.9464 10.0353L39.3662 15.185V18.742C40.9457 20.2779 42.4963 22.8768 43.6563 25.7611C44.9356 28.942 45.7794 32.5679 45.6383 35.6713L45.6203 36.0682L45.237 36.1727C39.282 37.7968 35.9695 38.0911 29.6129 38.1008C29.5846 39.0925 29.5341 40.0824 29.4611 41.0675L29.4456 41.2771C29.3268 42.8803 28.0612 44.1599 26.4593 44.2962L25.2088 44.4027C19.0219 44.9292 12.8014 44.9292 6.61451 44.4027L5.364 44.2962C3.76214 44.1599 2.4965 42.8803 2.37774 41.2771L2.36221 41.0675C2.15527 38.2737 2.12644 35.4701 2.27573 32.6736L2.27539 32.6582C2.27469 32.6253 2.2769 32.5931 2.2818 32.5617C2.30467 32.1465 2.33148 31.7313 2.36221 31.3164L2.37157 31.1901C2.48227 29.6956 3.5877 28.4884 5.024 28.2165C5.29504 25.1338 7.42487 23.4842 9.55352 21.9123C9.63293 21.8536 9.71241 21.795 9.79191 21.7364C10.6587 21.0976 11.5275 20.4572 12.3212 19.7278C11.7292 19.399 11.1542 19.0494 10.6195 18.6714C8.56348 17.2181 7.00798 15.2662 7.46375 12.3796C7.69623 10.9072 8.52501 9.90356 9.61012 9.37851C10.6766 8.86249 11.9552 8.8235 13.1079 9.18253C14.2643 9.54272 15.3347 10.3162 15.9612 11.4769C16.5928 12.6471 16.7421 14.1528 16.1564 15.9099C15.6815 17.3344 14.9604 18.4773 14.1234 19.442C14.2341 19.4974 14.3452 19.5526 14.4566 19.6075C14.836 19.7943 15.222 19.9797 15.6065 20.1643C16.366 20.5289 17.1196 20.8908 17.8047 21.2561C18.6052 21.6831 19.3823 22.056 20.1351 22.4173L20.1417 22.4205C20.2392 22.4672 20.3362 22.5138 20.4329 22.5603C21.246 21.178 22.2074 19.8844 23.2753 18.7864V15.4405L16.7488 9.76524L17.1623 9.3517C17.9902 8.5238 18.271 8.2438 21.272 5.5156C22.7091 4.2091 24.0064 3.48319 25.2755 3.36634C26.5679 3.24734 27.7111 3.76925 28.8063 4.68192C29.6056 5.34806 30.3033 5.76825 30.9631 5.88809C31.5822 6.00053 32.2425 5.86103 33.0208 5.2243C34.5365 3.98414 35.5899 3.42289 36.497 3.2992C37.3194 3.18707 37.963 3.45249 38.5392 3.69011ZM33.7116 6.06861C34.4331 5.47828 35.0061 5.08198 35.4725 4.82129C35.215 6.28376 34.4568 8.15116 33.5712 9.7452C33.0708 10.6459 32.5454 11.4308 32.0738 11.9823C31.8371 12.2591 31.6265 12.4622 31.4514 12.5917C31.2796 12.7187 31.1952 12.7352 31.1851 12.7371L31.1844 12.7374C31.1844 12.7374 31.1666 12.737 31.1268 12.7204C31.0849 12.7029 31.0272 12.6708 30.9541 12.6161C30.8057 12.505 30.6276 12.3262 30.4263 12.0736C30.0247 11.5697 29.5841 10.8399 29.1495 9.9707C28.3953 8.46236 27.6913 6.59887 27.2582 4.91646C27.5346 5.07633 27.8165 5.27717 28.1079 5.51998C28.9449 6.21749 29.8223 6.78964 30.7682 6.96144C31.7548 7.14062 32.7308 6.87106 33.7116 6.06861ZM10.0853 10.3605C9.32096 10.7303 8.71792 11.4312 8.54131 12.5497C8.1789 14.845 9.35067 16.4386 11.2492 17.7806C11.8256 18.1881 12.46 18.565 13.1249 18.9242C13.9626 18.0053 14.6666 16.9294 15.1214 15.5649C15.6267 14.0493 15.4691 12.8618 15.0012 11.9951C14.5283 11.1188 13.7067 10.5116 12.7835 10.2241C11.8567 9.9354 10.8683 9.98163 10.0853 10.3605ZM8.52077 28.0108L6.12945 28.1304C6.41686 25.704 8.09634 24.3445 10.2016 22.7898C10.2984 22.7183 10.396 22.6465 10.4943 22.5742C11.4298 21.8857 12.4245 21.1537 13.3391 20.268C13.5509 20.376 13.763 20.4819 13.9746 20.5861C14.3764 20.784 14.7734 20.9746 15.1624 21.1613L15.1638 21.162C15.9091 21.5197 16.6257 21.8637 17.2913 22.2187C18.1144 22.6577 18.9181 23.0433 19.673 23.4056L19.9019 23.5155C19.1279 24.9906 18.525 26.5355 18.1404 28.0298C14.6754 27.955 12.7442 27.938 12.5455 28.0101C12.1336 28.0837 12.0525 28.2533 12.0001 28.5556C11.9477 28.8579 12.3927 29.0747 12.7114 29.0658C13.3461 29.048 14.2901 29.0293 15.523 29.0258C17.9506 29.019 21.4984 29.0712 26.0117 29.3059C26.1307 29.3715 26.2742 29.3931 26.4158 29.3553C26.433 29.3508 26.4498 29.3454 26.4661 29.3393C27.018 29.4131 27.4463 29.6341 27.7533 29.9384C28.1051 30.2872 28.3271 30.7748 28.3703 31.3578C28.4013 31.7763 28.4282 32.1957 28.4512 32.6158C28.3924 34.8721 28.2075 36.0926 27.496 36.9296C27.1987 37.2794 26.5704 37.5356 25.4658 37.6769C24.5345 37.796 23.3759 37.8223 22.0153 37.8273C22.0695 36.8555 22.027 35.8796 21.8877 34.9142C21.702 33.6264 20.6625 32.6279 19.3767 32.4755C17.2691 32.2258 15.0996 32.2258 12.992 32.4755C11.7062 32.6279 10.6668 33.6264 10.481 34.9142C10.3287 35.9703 10.2921 37.0389 10.3712 38.101C8.76508 38.1005 7.41482 38.0848 6.35749 37.9496C5.25284 37.8083 4.62457 37.5521 4.32722 37.2023C3.59527 36.3413 3.42069 35.0742 3.36728 32.6909C3.39059 32.2594 3.41821 31.8281 3.45014 31.397L3.4595 31.2707C3.54081 30.173 4.42705 29.3078 5.5264 29.2528L8.57525 29.1004C8.87612 29.0853 9.10783 28.8292 9.09279 28.5283C9.07774 28.2275 8.82164 27.9958 8.52077 28.0108ZM19.2624 28.0548C19.6309 26.7067 20.1848 25.3195 20.883 23.9936C21.5569 24.3298 22.1777 24.6623 22.7411 25.0254C23.9859 25.8276 24.9377 26.7696 25.5002 28.2078C23.1067 28.1471 21.0208 28.095 19.2624 28.0548ZM28.5213 29.1637C28.0452 28.6917 27.4163 28.3798 26.6789 28.2678C26.0472 26.3071 24.8432 25.0823 23.3321 24.1085C22.7365 23.7246 22.0908 23.3781 21.4163 23.0405C22.1589 21.7895 23.0279 20.619 23.9859 19.621C25.1682 19.9219 27.785 20.3737 31.1844 20.3737C34.4609 20.3737 37.1488 19.8167 38.4937 19.4172C39.9438 20.7725 41.4757 23.2628 42.6442 26.1682C43.8315 29.1203 44.6076 32.4126 44.5608 35.2255C43.6845 35.4604 42.8667 35.6653 42.087 35.8438C42.0244 32.8215 41.5203 30.5596 41.259 29.5142C41.1859 29.2219 40.8898 29.0442 40.5975 29.1173C40.3053 29.1904 40.1276 29.4865 40.2006 29.7788C40.4564 30.8018 40.9599 33.0605 41 36.0807C40.4418 36.1958 39.8993 36.2972 39.3642 36.3865C39.3279 33.159 38.8068 29.5238 38.5317 28.4233C38.4586 28.131 38.1625 27.9533 37.8702 28.0264C37.578 28.0995 37.4003 28.3956 37.4734 28.6879C37.7288 29.7094 38.2548 33.3602 38.2747 36.553C35.6901 36.9113 33.1406 37.0041 29.6351 37.0098C29.6529 35.5388 29.622 34.0661 29.5429 32.6011C29.5447 32.5298 29.5463 32.458 29.5479 32.3855C29.5493 32.321 29.5394 32.259 29.5201 32.2011C29.5016 31.8928 29.481 31.5848 29.4582 31.2772C29.3976 30.4597 29.0789 29.7165 28.5213 29.1637ZM20.9048 38.0827C20.8515 38.1669 20.8207 38.2667 20.8207 38.3737C20.8207 38.4431 20.8337 38.5095 20.8573 38.5705C20.8426 38.6973 20.8262 38.8239 20.808 38.9503C20.6937 39.7429 20.0499 40.3663 19.2483 40.4613C17.226 40.701 15.1427 40.701 13.1204 40.4613C12.3188 40.3663 11.6751 39.7429 11.5608 38.9503C11.3752 37.6635 11.3752 36.3567 11.5608 35.0699C11.6751 34.2773 12.3188 33.6539 13.1204 33.5589C15.1427 33.3192 17.226 33.3192 19.2483 33.5589C20.0499 33.6539 20.6937 34.2773 20.808 35.0699C20.952 36.0684 20.9843 37.0788 20.9048 38.0827ZM21.9135 38.9186C23.3206 38.9147 24.5779 38.8902 25.6042 38.759C26.7333 38.6145 27.7414 38.3253 28.3272 37.6361C28.4024 37.5477 28.4728 37.4567 28.5388 37.3631C28.5173 38.5748 28.4622 39.7846 28.3732 40.9869L28.3576 41.1965C28.2785 42.2653 27.4347 43.1184 26.3668 43.2093L25.1163 43.3157C18.9909 43.837 12.8324 43.837 6.70701 43.3157L5.45651 43.2093C4.3886 43.1184 3.54484 42.2653 3.46567 41.1965L3.45014 40.9869C3.36765 39.8732 3.31393 38.758 3.289 37.6422C3.35368 37.7336 3.4226 37.8225 3.49605 37.9089C4.0819 38.598 5.08999 38.8873 6.21909 39.0317C7.37671 39.1798 8.82829 39.1919 10.4571 39.1919C10.4697 39.1919 10.4822 39.1915 10.4945 39.1907C10.7127 40.4374 11.7345 41.3956 12.992 41.5447C15.0996 41.7944 17.2691 41.7944 19.3767 41.5447C20.6625 41.3923 21.702 40.3938 21.8877 39.106C21.8967 39.0436 21.9053 38.9811 21.9135 38.9186Z" fill="#1E88E5"/>
</svg>
