<svg width="48" height="48" viewBox="0 0 48 48" fill="none" xmlns="http://www.w3.org/2000/svg">
<path fill-rule="evenodd" clip-rule="evenodd" d="M18.7657 5.3999C18.5005 5.3999 18.2462 5.50526 18.0586 5.6928L15.4586 8.2928C15.0681 8.68332 15.0681 9.31649 15.4586 9.70701L20.1072 14.3555C20.2947 14.5431 20.4 14.7974 20.4 15.0626V15.9404C20.4 16.3879 20.1011 16.7772 19.6782 16.9236C14.5106 18.7135 10.8 23.6234 10.8 29.3999C10.8 36.6901 16.7099 42.5999 24 42.5999C31.2902 42.5999 37.2001 36.6901 37.2001 29.3999C37.2001 23.6234 33.4895 18.7135 28.3218 16.9236C27.899 16.7772 27.6 16.3879 27.6 15.9404V15.0082C27.6 14.7633 27.6899 14.5269 27.8526 14.3439L31.9979 9.68041C32.3497 9.28468 32.332 8.68334 31.9576 8.30894L29.3415 5.6928C29.1539 5.50526 28.8996 5.3999 28.6344 5.3999H18.7657ZM26.2815 13.7999C26.5672 13.7999 26.8392 13.6778 27.029 13.4643L30.3493 9.72886C30.7011 9.33313 30.6834 8.73179 30.309 8.35739L28.8444 6.8928C28.6569 6.70526 28.4025 6.5999 28.1373 6.5999H19.2628C18.9976 6.5999 18.7432 6.70526 18.5557 6.8928L17.1557 8.29279C16.7652 8.68332 16.7652 9.31648 17.1557 9.70701L20.9557 13.507C21.1432 13.6945 21.3976 13.7999 21.6628 13.7999H26.2815ZM25.7558 14.9999C26.1116 14.9999 26.4 15.2883 26.4 15.6442C26.4 16.0466 26.0351 16.3496 25.6357 16.3002C25.0998 16.234 24.5539 16.1999 24 16.1999C23.4462 16.1999 22.9003 16.234 22.3644 16.3002C21.965 16.3496 21.6 16.0466 21.6 15.6442C21.6 15.2883 21.8885 14.9999 22.2443 14.9999H25.7558ZM12 29.3999C12 22.7725 17.3726 17.3999 24 17.3999C30.6275 17.3999 36 22.7725 36 29.3999C36 36.0273 30.6275 41.3999 24 41.3999C17.3726 41.3999 12 36.0273 12 29.3999ZM14.4 29.3999C14.4 24.098 18.6981 19.7999 24 19.7999C29.302 19.7999 33.6 24.098 33.6 29.3999C33.6 34.7018 29.302 38.9999 24 38.9999C18.6981 38.9999 14.4 34.7018 14.4 29.3999ZM24 18.5999C18.0354 18.5999 13.2 23.4352 13.2 29.3999C13.2 35.3646 18.0354 40.1999 24 40.1999C29.9647 40.1999 34.8 35.3646 34.8 29.3999C34.8 23.4352 29.9647 18.5999 24 18.5999Z" fill="#1E88E5"/>
</svg>
