<svg width="48" height="48" viewBox="0 0 48 48" fill="none" xmlns="http://www.w3.org/2000/svg">
<path fill-rule="evenodd" clip-rule="evenodd" d="M23.5624 27.3653C23.789 27.1236 24.1687 27.1113 24.4105 27.338L34.0105 36.338C34.2522 36.5646 34.2645 36.9443 34.0378 37.1861C33.8112 37.4278 33.4315 37.4401 33.1897 37.2134L23.5897 28.2134C23.348 27.9868 23.3357 27.6071 23.5624 27.3653Z" fill="#1E88E5"/>
<path fill-rule="evenodd" clip-rule="evenodd" d="M24.4378 27.3653C24.2112 27.1236 23.8315 27.1113 23.5897 27.338L13.9897 36.338C13.748 36.5646 13.7357 36.9443 13.9624 37.1861C14.189 37.4278 14.5687 37.4401 14.8105 37.2134L24.4105 28.2134C24.6522 27.9868 24.6645 27.6071 24.4378 27.3653Z" fill="#1E88E5"/>
<path fill-rule="evenodd" clip-rule="evenodd" d="M23.5516 31.577C23.7718 31.3293 24.151 31.307 24.3987 31.5272L29.7987 36.3273C30.0464 36.5474 30.0687 36.9267 29.8485 37.1743C29.6284 37.422 29.2491 37.4443 29.0015 37.2241L23.6015 32.4241C23.3538 32.2039 23.3315 31.8247 23.5516 31.577Z" fill="#1E88E5"/>
<path fill-rule="evenodd" clip-rule="evenodd" d="M24.4485 31.577C24.2284 31.3293 23.8492 31.307 23.6015 31.5272L18.2015 36.3273C17.9538 36.5474 17.9315 36.9267 18.1517 37.1743C18.3718 37.422 18.7511 37.4443 18.9987 37.2241L24.3987 32.4241C24.6464 32.2039 24.6687 31.8247 24.4485 31.577Z" fill="#1E88E5"/>
<path fill-rule="evenodd" clip-rule="evenodd" d="M23.2046 24.0187C23.4281 24.2635 23.4108 24.643 23.1661 24.8664L22.359 25.6033C22.1143 25.8268 21.7348 25.8095 21.5113 25.5648C21.2879 25.3201 21.3052 24.9406 21.5499 24.7171L22.357 23.9802C22.6017 23.7568 22.9812 23.774 23.2046 24.0187ZM20.7833 26.2295C21.0067 26.4743 20.9895 26.8538 20.7448 27.0772L19.1305 28.5511C18.8858 28.7745 18.5063 28.7572 18.2829 28.5125C18.0595 28.2678 18.0767 27.8883 18.3214 27.6649L19.9356 26.191C20.1804 25.9676 20.5599 25.9848 20.7833 26.2295ZM17.5548 29.1773C17.7783 29.422 17.761 29.8015 17.5163 30.0249L15.9021 31.4988C15.6574 31.7222 15.2779 31.705 15.0544 31.4602C14.831 31.2155 14.8483 30.836 15.093 30.6126L16.7072 29.1387C16.9519 28.9153 17.3314 28.9325 17.5548 29.1773ZM14.3264 32.125C14.5498 32.3697 14.5326 32.7492 14.2879 32.9726L12.6736 34.4465C12.4289 34.6699 12.0494 34.6527 11.826 34.408C11.6026 34.1632 11.6198 33.7837 11.8645 33.5603L13.4787 32.0865C13.7235 31.863 14.103 31.8803 14.3264 32.125ZM11.0979 35.0727C11.3214 35.3174 11.3041 35.6969 11.0594 35.9204L10.2523 36.6573C10.0076 36.8807 9.62808 36.8635 9.40464 36.6188C9.18121 36.374 9.19846 35.9945 9.44317 35.7711L10.2503 35.0342C10.495 34.8107 10.8745 34.828 11.0979 35.0727Z" fill="#1E88E5"/>
<path fill-rule="evenodd" clip-rule="evenodd" d="M24.7956 24.0187C24.5721 24.2635 24.5894 24.643 24.8341 24.8664L25.6412 25.6033C25.8859 25.8268 26.2654 25.8095 26.4888 25.5648C26.7123 25.3201 26.695 24.9406 26.4503 24.7171L25.6432 23.9802C25.3985 23.7568 25.019 23.774 24.7956 24.0187ZM27.2169 26.2295C26.9935 26.4743 27.0107 26.8538 27.2554 27.0772L28.8697 28.5511C29.1144 28.7745 29.4939 28.7572 29.7173 28.5125C29.9407 28.2678 29.9235 27.8883 29.6788 27.6649L28.0645 26.191C27.8198 25.9676 27.4403 25.9848 27.2169 26.2295ZM30.4453 29.1773C30.2219 29.422 30.2392 29.8015 30.4839 30.0249L32.0981 31.4988C32.3428 31.7222 32.7223 31.705 32.9458 31.4602C33.1692 31.2155 33.1519 30.836 32.9072 30.6126L31.293 29.1387C31.0483 28.9153 30.6688 28.9325 30.4453 29.1773ZM33.6738 32.125C33.4504 32.3697 33.4676 32.7492 33.7123 32.9726L35.3266 34.4465C35.5713 34.6699 35.9508 34.6527 36.1742 34.408C36.3976 34.1632 36.3804 33.7837 36.1357 33.5603L34.5215 32.0865C34.2767 31.863 33.8972 31.8803 33.6738 32.125ZM36.9023 35.0727C36.6788 35.3174 36.6961 35.6969 36.9408 35.9204L37.7479 36.6573C37.9926 36.8807 38.3721 36.8635 38.5956 36.6188C38.819 36.374 38.8017 35.9945 38.557 35.7711L37.7499 35.0342C37.5052 34.8107 37.1257 34.828 36.9023 35.0727Z" fill="#1E88E5"/>
<path fill-rule="evenodd" clip-rule="evenodd" d="M36.9906 30.9201C37.2062 30.6685 37.585 30.6394 37.8366 30.855L41.1255 33.6741C41.3771 33.8897 41.4062 34.2685 41.1906 34.5201C40.9749 34.7717 40.5961 34.8008 40.3445 34.5852L37.0556 31.7661C36.8041 31.5505 36.7749 31.1717 36.9906 30.9201Z" fill="#1E88E5"/>
<path fill-rule="evenodd" clip-rule="evenodd" d="M11.0096 30.9201C10.794 30.6685 10.4152 30.6394 10.1636 30.855L6.87471 33.6741C6.62311 33.8897 6.59397 34.2685 6.80963 34.5201C7.02528 34.7717 7.40406 34.8008 7.65566 34.5852L10.9445 31.7661C11.1961 31.5505 11.2253 31.1717 11.0096 30.9201Z" fill="#1E88E5"/>
<path fill-rule="evenodd" clip-rule="evenodd" d="M22.2001 37.3757C22.2001 38.3698 23.006 39.1757 24.0001 39.1757C24.9942 39.1757 25.8001 38.3698 25.8001 37.3757H27.0001C27.0001 39.0325 25.657 40.3757 24.0001 40.3757C22.3432 40.3757 21.0001 39.0325 21.0001 37.3757H22.2001Z" fill="#1E88E5"/>
<path fill-rule="evenodd" clip-rule="evenodd" d="M21.6668 36.8139C20.5747 36.6918 18.9309 36.8325 17.5367 37.6866C16.108 38.5618 15.0138 40.1441 15.0003 42.7273C15.0001 42.7355 15 42.7438 15.0002 42.752C15.0002 42.7599 15.0002 42.7678 15.0002 42.7757C15.0002 43.1071 15.2688 43.3757 15.6001 43.3757C15.651 43.3757 15.7004 43.3694 15.7475 43.3574C16.8328 43.4389 18.3577 43.2648 19.6635 42.4648C21.1012 41.5842 22.2001 39.9875 22.2001 37.3757L21.604 37.3757L21.6668 36.8139ZM20.9767 37.9756C20.123 37.9726 19.0608 38.1602 18.1635 38.7099C17.2013 39.2993 16.3713 40.3376 16.2235 42.1758C17.0773 42.1788 18.1394 41.9912 19.0367 41.4415C19.999 40.8521 20.8289 39.8137 20.9767 37.9756Z" fill="#1E88E5"/>
<path fill-rule="evenodd" clip-rule="evenodd" d="M26.9334 36.8139C28.0255 36.6918 29.6693 36.8325 31.0635 37.6866C32.4922 38.5618 33.5864 40.1441 33.5999 42.7273C33.6001 42.7355 33.6002 42.7438 33.6 42.752C33.6 42.7599 33.6 42.7678 33.6 42.7757C33.6 43.1071 33.3314 43.3757 33.0001 43.3757C32.9492 43.3757 32.8998 43.3694 32.8527 43.3574C31.7674 43.4389 30.2425 43.2648 28.9367 42.4648C27.499 41.5842 26.4001 39.9875 26.4001 37.3757H26.9962L26.9334 36.8139ZM27.6235 37.9756C28.4772 37.9726 29.5394 38.1602 30.4367 38.7099C31.3989 39.2993 32.2288 40.3376 32.3767 42.1758C31.5229 42.1788 30.4608 41.9912 29.5635 41.4415C28.6012 40.8521 27.7713 39.8137 27.6235 37.9756Z" fill="#1E88E5"/>
<path fill-rule="evenodd" clip-rule="evenodd" d="M24.7045 6.15679C24.4754 5.9478 24.1248 5.9478 23.8957 6.15679L7.99572 20.6621C7.8711 20.7757 7.8001 20.9366 7.8001 21.1053V35.5757C7.8001 35.9071 8.06873 36.1757 8.4001 36.1757H40.2001C40.5315 36.1757 40.8001 35.9071 40.8001 35.5757V21.1053C40.8001 20.9366 40.7291 20.7757 40.6045 20.6621L24.7045 6.15679ZM23.087 5.27027C23.7742 4.64331 24.826 4.64331 25.5132 5.27027L41.4132 19.7755C41.7871 20.1166 42.0001 20.5993 42.0001 21.1053V35.5757C42.0001 36.5698 41.1942 37.3757 40.2001 37.3757H8.4001C7.40598 37.3757 6.6001 36.5698 6.6001 35.5757V21.1053C6.6001 20.5993 6.81311 20.1166 7.18697 19.7755L23.087 5.27027Z" fill="#1E88E5"/>
<path fill-rule="evenodd" clip-rule="evenodd" d="M24.399 16.9391C24.1714 16.7351 23.8268 16.7347 23.5988 16.9383L7.59971 31.2232L6.80049 30.3281L22.7996 16.0432C23.4836 15.4325 24.5173 15.4335 25.2 16.0456L41.8006 30.9289L40.9996 31.8224L24.399 16.9391Z" fill="#1E88E5"/>
<path fill-rule="evenodd" clip-rule="evenodd" d="M24.4023 20.5475C24.1739 20.3411 23.8264 20.3411 23.5979 20.5475L15.1023 28.221C14.8564 28.4431 14.477 28.4238 14.2548 28.1779C14.0327 27.932 14.052 27.5525 14.2979 27.3304L22.7936 19.6569C23.4789 19.038 24.5213 19.038 25.2066 19.6569L33.7023 27.3304C33.9482 27.5525 33.9675 27.932 33.7454 28.1779C33.5233 28.4238 33.1438 28.4431 32.8979 28.221L24.4023 20.5475Z" fill="#1E88E5"/>
</svg>
