<svg width="48" height="48" viewBox="0 0 48 48" fill="none" xmlns="http://www.w3.org/2000/svg">
<path fill-rule="evenodd" clip-rule="evenodd" d="M20.7315 18.2801C20.0043 17.8559 19.0909 18.3804 19.0909 19.2224V28.7776C19.0909 29.6196 20.0043 30.1442 20.7315 29.7199L28.9217 24.9423C29.6434 24.5214 29.6434 23.4787 28.9217 23.0577L20.7315 18.2801ZM20.1818 19.2224L28.372 24L20.1818 28.7776V19.2224Z" fill="#1E88E5"/>
<path fill-rule="evenodd" clip-rule="evenodd" d="M2.72729 6H45.8182V42H2.72729V6ZM8.72729 7.09091H3.8182V11.7273H8.72729V7.09091ZM9.8182 40.9091H38.1818V7.09091H9.8182V40.9091ZM8.72729 35.7273V30.8182H3.8182V35.7273H8.72729ZM3.8182 36.8182H8.72729V40.9091H3.8182V36.8182ZM8.72729 24.8182V29.7273H3.8182V24.8182H8.72729ZM8.72729 23.7273V18.8182H3.8182V23.7273H8.72729ZM8.72729 12.8182V17.7273H3.8182V12.8182H8.72729ZM39.2727 17.7273V12.8182H44.7273V17.7273H39.2727ZM39.2727 18.8182V23.7273H44.7273V18.8182H39.2727ZM39.2727 29.7273V24.8182H44.7273V29.7273H39.2727ZM39.2727 30.8182V35.7273H44.7273V30.8182H39.2727ZM39.2727 40.9091V36.8182H44.7273L44.7273 40.9091H39.2727ZM44.7273 11.7273H39.2727V7.09091H44.7273L44.7273 11.7273Z" fill="#1E88E5"/>
</svg>
