<svg width="48" height="48" viewBox="0 0 48 48" fill="none" xmlns="http://www.w3.org/2000/svg">
<path d="M18.5882 20.6785C18.3218 20.8324 18.2331 21.1722 18.3619 21.4516C18.9208 22.6636 19.0679 24.0313 18.7711 25.3431C18.4331 26.8367 17.5444 28.148 16.2824 29.0154C15.0203 29.8828 13.4776 30.2425 11.9621 30.0228C10.4465 29.803 9.06954 29.02 8.10581 27.8299C7.14207 26.6398 6.66244 25.1301 6.7626 23.602C6.86275 22.0738 7.53534 20.6397 8.64617 19.5855C9.757 18.5314 11.2244 17.9348 12.7557 17.9147C14.1005 17.8971 15.4077 18.3254 16.477 19.124C16.7235 19.3081 17.0744 19.292 17.2803 19.0634C17.4862 18.8347 17.4689 18.4805 17.2251 18.2929C17.0532 18.1607 16.876 18.0368 16.6939 17.9212C15.5204 17.1763 14.1481 16.7822 12.7411 16.8006C10.9295 16.8243 9.19341 17.5302 7.8792 18.7773C6.56499 20.0244 5.76927 21.7212 5.65077 23.5291C5.53228 25.337 6.09972 27.1231 7.2399 28.5311C8.38008 29.9391 10.0092 30.8655 11.8022 31.1255C13.5952 31.3854 15.4203 30.9599 16.9135 29.9337C18.4066 28.9075 19.4579 27.3561 19.8578 25.589C20.1684 24.2165 20.0682 22.7923 19.5835 21.4896C19.5083 21.2875 19.4239 21.0883 19.3303 20.8927C19.1976 20.6152 18.8547 20.5247 18.5882 20.6785Z" fill="#1E88E5"/>
<path fill-rule="evenodd" clip-rule="evenodd" d="M10.3534 20.5881C10.1246 20.3484 9.74482 20.3395 9.50512 20.5683C9.26542 20.7971 9.25658 21.1769 9.48538 21.4166L11.2013 23.2143L11.2108 23.224C11.0983 23.459 11.0353 23.7221 11.0353 24C11.0353 24.9941 11.8412 25.8 12.8353 25.8C13.8294 25.8 14.6353 24.9941 14.6353 24C14.6353 23.8104 14.606 23.6276 14.5516 23.4559L15.5933 22.6816C15.8592 22.4839 15.9146 22.1081 15.7169 21.8421C15.5192 21.5762 15.1433 21.5208 14.8774 21.7185L13.8282 22.4984C13.5436 22.3098 13.2023 22.2 12.8353 22.2C12.5575 22.2 12.2944 22.263 12.0594 22.3754L10.3534 20.5881ZM12.8353 24.6C13.1667 24.6 13.4353 24.3314 13.4353 24C13.4353 23.6687 13.1667 23.4 12.8353 23.4C12.504 23.4 12.2353 23.6687 12.2353 24C12.2353 24.3314 12.504 24.6 12.8353 24.6Z" fill="#1E88E5"/>
<path fill-rule="evenodd" clip-rule="evenodd" d="M11.0854 7.94749C10.2818 9.17061 9.58073 10.9204 9.03391 13.0655C8.46572 13.2653 8.03241 13.7379 7.88517 14.3269L7.45478 16.0484C4.90853 17.7747 3.23535 20.692 3.23535 24C3.23535 27.308 4.90853 30.2253 7.45478 31.9516L7.88517 33.6731C8.03241 34.2621 8.46572 34.7347 9.03392 34.9345C9.59366 37.1303 10.3145 38.9099 11.1405 40.1352C11.9684 41.3634 12.8786 42 13.8 42H20.4C20.7313 42 20.9999 41.7314 20.9999 41.4C20.9999 41.0686 20.7313 40.8 20.3999 40.8H20.3964C20.0726 40.7983 19.4925 40.5685 18.767 39.5108C18.0611 38.4817 17.3918 36.9043 16.85 34.8437C17.3122 34.6106 17.6573 34.186 17.7855 33.6731L18.2159 31.9516C20.2886 30.5463 21.7828 28.3519 22.2669 25.8H22.4354C23.4295 25.8 24.2353 24.9941 24.2353 24C24.2353 23.0059 23.4295 22.2 22.4354 22.2H22.2669C21.7828 19.6481 20.2886 17.4537 18.2159 16.0484L17.7855 14.3269C17.6573 13.814 17.3122 13.3894 16.85 13.1563C17.3645 11.1996 17.9959 9.67122 18.6688 8.63629C19.3966 7.51706 19.9995 7.22628 20.3433 7.202L20.3431 7.2H20.4C20.7313 7.2 21 6.93137 21 6.6C21 6.26863 20.7313 6 20.4 6H13.8L13.7922 6.00005C12.8526 6.00371 11.9253 6.66925 11.0854 7.94749ZM13.7967 7.19999C13.4601 7.20137 12.8464 7.4527 12.0883 8.60644C11.4628 9.5584 10.873 10.9355 10.3786 12.6844C12.1075 12.2554 13.9208 12.2861 15.6375 12.7766L15.7041 12.7956C16.235 10.7928 16.9027 9.15116 17.6628 7.98215C17.8528 7.68982 18.0475 7.4289 18.2459 7.2H13.8L13.7967 7.19999ZM22.4169 23.4C22.4291 23.5984 22.4354 23.7985 22.4354 24C22.4354 24.2015 22.4291 24.4016 22.4169 24.6H22.4354C22.7667 24.6 23.0354 24.3314 23.0354 24C23.0354 23.6686 22.7667 23.4 22.4354 23.4H22.4169ZM16.778 15.2444L16.6214 14.6179C16.5693 14.4099 16.4103 14.2454 16.2041 14.1865L15.3078 13.9304C13.6918 13.4687 11.9789 13.4687 10.3629 13.9304L9.46659 14.1865C9.26041 14.2454 9.10134 14.4099 9.04934 14.6179L8.89272 15.2444C10.0955 14.7019 11.4302 14.4 12.8354 14.4C14.2405 14.4 15.5752 14.7019 16.778 15.2444ZM12.8354 32.4C17.4745 32.4 21.2353 28.6392 21.2353 24C21.2353 19.3608 17.4745 15.6 12.8354 15.6C8.19616 15.6 4.43535 19.3608 4.43535 24C4.43535 28.6392 8.19616 32.4 12.8354 32.4ZM12.8354 33.6C14.2405 33.6 15.5752 33.2981 16.778 32.7556L16.6214 33.3821C16.5693 33.5901 16.4103 33.7546 16.2041 33.8135L15.3078 34.0696C13.6918 34.5313 11.9789 34.5313 10.3629 34.0696L9.46659 33.8135C9.26041 33.7546 9.10134 33.5901 9.04934 33.3821L8.89272 32.7556C10.0955 33.2981 11.4302 33.6 12.8354 33.6ZM15.7041 35.2044L15.6375 35.2234C13.9208 35.7139 12.1075 35.7446 10.3786 35.3156C10.8868 37.1132 11.4945 38.5136 12.1355 39.4644C12.8754 40.562 13.4695 40.7992 13.7982 40.8H13.7999H18.2459C18.0873 40.617 17.931 40.4134 17.7774 40.1896C16.9707 39.0134 16.2622 37.3097 15.7041 35.2044Z" fill="#1E88E5"/>
<path fill-rule="evenodd" clip-rule="evenodd" d="M38.6999 6C38.736 6 38.7713 6.00318 38.8056 6.00927C38.8701 6.0031 38.9349 6 39 6C42.3137 6 45 14.0589 45 24C45 33.9411 42.3137 42 39 42C38.9349 42 38.8701 41.9969 38.8056 41.9907C38.7713 41.9968 38.736 42 38.6999 42H32.4C31.6052 42 30.8258 41.527 30.1038 40.6298C29.3827 39.7338 28.7199 38.4157 28.1573 36.7279C27.0321 33.3523 26.4 28.7739 26.4 24C26.4 19.2261 27.0321 14.6477 28.1573 11.2721C28.7199 9.58427 29.3827 8.26624 30.1038 7.37017C30.8258 6.47305 31.6052 6 32.4 6H38.6999ZM31.0387 8.1225C31.6453 7.36876 32.1163 7.2 32.4 7.2H36.8414C35.2779 9.00921 34.0304 12.7263 33.4161 17.4H28.0284C28.3185 15.2525 28.7486 13.293 29.2957 11.6516C29.8336 10.0378 30.4402 8.86621 31.0387 8.1225ZM33.4161 30.6C34.0304 35.2737 35.2779 38.9908 36.8414 40.8H32.4C32.1163 40.8 31.6453 40.6312 31.0387 39.8775C30.4402 39.1338 29.8336 37.9622 29.2957 36.3484C28.7486 34.707 28.3185 32.7475 28.0284 30.6H33.4161ZM33.0032 24.6C33.0214 26.2673 33.1152 27.8773 33.2746 29.4H27.8831C27.7179 27.8647 27.6221 26.2502 27.6034 24.6H33.0032ZM33.2746 18.6C33.1152 20.1227 33.0214 21.7327 33.0032 23.4H27.6034C27.6221 21.7498 27.7179 20.1353 27.8831 18.6H33.2746ZM43.7966 24.6H38.3966C38.3688 27.1055 38.1667 29.5677 37.8028 31.8282C37.4505 34.0167 36.9545 35.9661 36.3454 37.561C36.7458 38.5296 37.1745 39.294 37.607 39.8427C38.217 40.6168 38.6968 40.8 39 40.8C39.3031 40.8 39.7829 40.6168 40.3929 39.8427C40.9923 39.0821 41.5846 37.9072 42.1042 36.3485C43.0966 33.3713 43.7449 29.235 43.7966 24.6ZM43.7966 23.4H38.3966C38.3697 20.9816 38.1805 18.6016 37.8394 16.4034C37.4855 14.1226 36.9764 12.0912 36.3454 10.439C36.7458 9.47039 37.1745 8.70601 37.607 8.1573C38.217 7.38322 38.6968 7.2 39 7.2C39.3031 7.2 39.7829 7.38322 40.3929 8.1573C40.9923 8.91785 41.5846 10.0928 42.1042 11.6516C43.0966 14.6287 43.7449 18.765 43.7966 23.4ZM36.6536 16.5874C36.4058 14.9904 36.0823 13.5366 35.6999 12.2688C34.7781 15.3228 34.1999 19.4376 34.1999 24C34.1999 28.5624 34.7781 32.6772 35.6999 35.7311C36.0639 34.5244 36.3749 33.1478 36.6181 31.6375C36.9939 29.303 37.1936 26.736 37.1998 24.1253C37.206 21.5147 37.0185 18.9389 36.6536 16.5874Z" fill="#1E88E5"/>
</svg>
