<svg width="48" height="48" viewBox="0 0 48 48" fill="none" xmlns="http://www.w3.org/2000/svg">
<path fill-rule="evenodd" clip-rule="evenodd" d="M41.7778 44C43.0051 44 44 43.0051 44 41.7778V6.22222C44 4.99492 43.0051 4 41.7778 4H6.22222C4.99492 4 4 4.99492 4 6.22222V41.7778C4 43.0051 4.99492 44 6.22222 44H41.7778ZM15.1111 5.11111H41.7778C42.3914 5.11111 42.8889 5.60857 42.8889 6.22222V41.7778C42.8889 42.3914 42.3914 42.8889 41.7778 42.8889H30.6667L30.6667 17.6531L35.0562 13.307C35.1725 13.2052 35.2459 13.0556 35.2459 12.8889C35.2459 11.8575 34.8362 10.8683 34.1069 10.139C33.3776 9.40972 32.3884 9 31.357 9C30.3644 9 29.1999 9.35886 28.4461 10.1127L28.4451 10.1136L28.4435 10.112L15.272 23.3456C15.2268 23.3867 15.1824 23.429 15.139 23.4724C15.1297 23.4817 15.1204 23.4911 15.1111 23.5006L15.1111 5.11111ZM15.1111 26.2222L15.1111 42.8889H29.5556L29.5556 18.7532L21.6152 26.615C21.5146 26.7156 21.3757 26.7778 21.2222 26.7778C20.9154 26.7778 20.6667 26.529 20.6667 26.2222C20.6667 25.4855 20.374 24.779 19.8531 24.258C19.3321 23.7371 18.6256 23.4444 17.8889 23.4444C17.2045 23.4444 16.5461 23.697 16.0384 24.1506L15.8977 24.2919L15.8945 24.2887C15.3925 24.8065 15.1111 25.4999 15.1111 26.2222ZM14 5.11111H6.22222C5.60857 5.11111 5.11111 5.60857 5.11111 6.22222V41.7778C5.11111 42.3914 5.60857 42.8889 6.22222 42.8889H14L14 5.11111ZM33.3212 10.9247C33.789 11.3925 34.0727 12.01 34.1257 12.6646L21.6016 25.0648C21.4159 24.4693 21.0879 23.9216 20.6388 23.4724C19.9094 22.7431 18.9203 22.3333 17.8889 22.3333C17.8749 22.3333 17.8609 22.3334 17.8469 22.3336L29.1953 10.9317C29.2078 10.9212 29.22 10.9101 29.2317 10.8984C29.7281 10.402 30.5815 10.1111 31.357 10.1111C32.0937 10.1111 32.8003 10.4038 33.3212 10.9247Z" fill="#1E88E5"/>
</svg>
