<!-- Generated by IcoMoon.io -->
<svg version="1.1" xmlns="http://www.w3.org/2000/svg" width="512" height="512" viewBox="0 0 512 512">
<title></title>
<g id="icomoon-ignore">
</g>
<path d="M464 512h-16v-160h64v112c0 26.496-21.488 48-48 48zM448 160h16c26.512 0 48 21.504 48 48v128h-64v-176zM96 352h128v32c0 8.848 7.168 16 16 16h32c8.848 0 16-7.152 16-16v-32h128v160h-320v-160zM288 336v-48c0-8.848-7.152-16-16-16h-32c-8.832 0-16 7.152-16 16v48h-128v-176h32v-40c0-66.272 57.312-120 128-120s128 53.728 128 120v40h32v176h-128zM320 128c0-35.344-28.656-64-64-64s-64 28.656-64 64v32h128v-32zM0 464v-112h64v160h-16c-26.512 0-48-21.504-48-48zM0 208c0-26.496 21.488-48 48-48h16v176h-64v-128z"></path>
</svg>
