<svg width="80" height="80" viewBox="0 0 80 80" fill="none" xmlns="http://www.w3.org/2000/svg">
<path opacity="0.32" fill-rule="evenodd" clip-rule="evenodd" d="M69.7048 27.4232C64.9056 28.6304 59.2393 28.7106 54.3451 27.2154C52.276 26.5832 50.6626 24.9714 49.9643 22.9237C48.2246 17.8226 47.7949 11.5788 49.0735 6.77275C46.4264 6.70627 43.4161 6.66675 40 6.66675C28.3858 6.66675 21.4648 7.12283 17.5428 7.54605C14.6372 7.85958 12.3967 9.82763 11.8527 12.699C11.0058 17.1686 10 25.5242 10 40.0001C10 54.4759 11.0058 62.8316 11.8527 67.3013C12.3967 70.1726 14.6372 72.1406 17.5428 72.4541C21.4648 72.8773 28.3858 73.3334 40 73.3334C51.6142 73.3334 58.5352 72.8773 62.4572 72.4541C65.3628 72.1406 67.6033 70.1726 68.1473 67.3013C68.9942 62.8316 70 54.4759 70 40.0001C70 35.1484 69.887 30.9841 69.7048 27.4232ZM26.6667 43.3334C24.8257 43.3334 23.3333 41.8411 23.3333 40.0001C23.3333 38.1591 24.8257 36.6667 26.6667 36.6667H40C41.841 36.6667 43.3333 38.1591 43.3333 40.0001C43.3333 41.8411 41.841 43.3334 40 43.3334H26.6667ZM26.6667 58.3334C24.8257 58.3334 23.3333 56.8411 23.3333 55.0001C23.3333 53.1591 24.8257 51.6668 26.6667 51.6668H50C51.841 51.6668 53.3333 53.1591 53.3333 55.0001C53.3333 56.8411 51.841 58.3334 50 58.3334H26.6667Z" fill="#1877F2"/>
<path d="M23.3333 55C23.3333 56.841 24.8256 58.3333 26.6666 58.3333H50C51.841 58.3333 53.3333 56.841 53.3333 55C53.3333 53.159 51.841 51.6667 50 51.6667H26.6666C24.8256 51.6667 23.3333 53.159 23.3333 55Z" fill="#1877F2"/>
<path d="M23.3333 40C23.3333 41.841 24.8256 43.3333 26.6666 43.3333H40C41.841 43.3333 43.3333 41.841 43.3333 40C43.3333 38.159 41.841 36.6667 40 36.6667H26.6666C24.8256 36.6667 23.3333 38.159 23.3333 40Z" fill="#1877F2"/>
<path d="M69.7048 27.4232C64.9056 28.6303 59.2393 28.7105 54.3451 27.2153C52.276 26.5832 50.6626 24.9713 49.9643 22.9237C48.2246 17.8225 47.7948 11.5786 49.0735 6.77246C49.0735 6.77246 53.1538 8.33313 60.6538 15.8331C68.1538 23.3332 69.7048 27.4232 69.7048 27.4232Z" fill="#1877F2"/>
</svg>
