<svg width="80" height="80" viewBox="0 0 80 80" fill="none" xmlns="http://www.w3.org/2000/svg">
<path opacity="0.32" d="M7.20669 28.3333C6.66669 32.01 6.66669 36.8333 6.66669 43.3333C6.66669 55.9033 6.66669 62.19 10.5734 66.0933C14.4767 70 20.7634 70 33.3334 70H46.6667C59.2367 70 65.5234 70 69.4267 66.0933C73.3334 62.19 73.3334 55.9033 73.3334 43.3333C73.3334 36.8333 73.3334 32.01 72.7934 28.3333C65.2034 33.2667 60.34 36.41 55.8334 38.35V40C55.8369 40.3283 55.7757 40.6541 55.6533 40.9587C55.5309 41.2634 55.3497 41.541 55.12 41.7756C54.6561 42.2494 54.0231 42.5196 53.36 42.5267C52.697 42.5337 52.0583 42.2771 51.5844 41.8133C51.1106 41.3495 50.8404 40.7164 50.8334 40.0533C43.7324 41.9252 36.2676 41.9252 29.1667 40.0533C29.1596 40.7164 28.8894 41.3495 28.4156 41.8133C27.9418 42.2771 27.3031 42.5337 26.64 42.5267C25.977 42.5196 25.3439 42.2494 24.8801 41.7756C24.4162 41.3017 24.1596 40.6631 24.1667 40V38.3467C19.66 36.4133 14.8 33.2667 7.20669 28.3333Z" fill="#1877F2"/>
<path fill-rule="evenodd" clip-rule="evenodd" d="M35.27 7.50001H35.2033C34.8233 7.50001 34.53 7.50001 34.25 7.51668C32.5181 7.62196 30.8516 8.21661 29.4443 9.23153C28.037 10.2464 26.9467 11.6399 26.3 13.25C26.1579 13.628 26.0246 14.0092 25.9 14.3933L25.8867 14.4333C25.5428 15.3422 24.9615 16.1422 24.2033 16.75C23.4467 16.7767 22.7233 16.8067 22.03 16.85C16.55 17.17 13.0733 18.07 10.57 20.5733C9.75667 21.3867 9.11 22.3067 8.60333 23.3667C8.7982 23.4335 8.98405 23.5242 9.15667 23.6367C16.1567 28.1867 20.5567 31.0367 24.21 32.86C24.3256 32.2472 24.666 31.6997 25.1645 31.325C25.663 30.9503 26.2835 30.7754 26.9043 30.8347C27.5251 30.894 28.1014 31.1831 28.5199 31.6454C28.9385 32.1077 29.1692 32.7097 29.1667 33.3333V34.86C36.2333 36.9933 43.7667 36.9933 50.8333 34.86V33.3333C50.8352 32.7127 51.0678 32.115 51.4859 31.6564C51.904 31.1978 52.4777 30.9111 53.0955 30.8521C53.7133 30.793 54.3309 30.9659 54.8283 31.337C55.3257 31.7081 55.6673 32.251 55.7867 32.86C59.4433 31.0333 63.8433 28.1867 70.8433 23.6367C71.0171 23.5241 71.204 23.4334 71.4 23.3667C70.9062 22.3299 70.2389 21.3852 69.4267 20.5733C66.9267 18.0733 63.45 17.1733 57.97 16.8467C57.3133 16.81 56.6267 16.78 55.91 16.7533C55.0712 16.0699 54.4236 15.1811 54.03 14.1733L54.0167 14.1433C53.8967 13.7867 53.8033 13.5067 53.7 13.2467C53.0528 11.6372 51.9622 10.2444 50.555 9.23013C49.1477 8.21584 47.4815 7.62167 45.75 7.51668C45.4325 7.50168 45.1145 7.49612 44.7967 7.50001H35.27ZM49.3933 16.0533L49.3767 16.0167L49.36 15.9767L49.3433 15.9367L49.3333 15.9033L49.3267 15.8867L49.3133 15.8467L49.3 15.8067L49.2933 15.7867L49.2833 15.76L49.2767 15.7367L49.27 15.7167C49.2051 15.5138 49.1351 15.3126 49.06 15.1133C48.7662 14.3814 48.2706 13.7479 47.631 13.2865C46.9914 12.8251 46.2339 12.5546 45.4467 12.5067C45.2079 12.4983 44.9689 12.4961 44.73 12.5H35.27C34.7933 12.5 34.66 12.5 34.5533 12.5067C33.7661 12.5546 33.0086 12.8251 32.369 13.2865C31.7294 13.7479 31.2338 14.3814 30.94 15.1133L30.93 15.1367L30.9033 15.2067C30.8111 15.4603 30.7244 15.7159 30.6433 15.9733L30.64 15.9933L30.63 16.0167L30.6233 16.0433L30.6167 16.0633L30.6033 16.1033L30.5867 16.1433L30.5833 16.16L30.57 16.1933L30.5533 16.2333L30.54 16.2733L30.5233 16.3067C30.4769 16.4277 30.428 16.551 30.3767 16.67L33.3333 16.6667H49.6533C49.5588 16.4652 49.4743 16.2606 49.3933 16.0533Z" fill="#1877F2"/>
</svg>
